<svg width="14266" height="13472" viewBox="0 0 14266 13472" fill="none" xmlns="http://www.w3.org/2000/svg">
<g clip-path="url(#clip0_155_49876)">
<path fill-rule="evenodd" clip-rule="evenodd" d="M14248 3240V6480H14202H14156V6315.5V6151H14101H14046V6096V6041H13991.5H13937L13936.8 5986.25L13936.5 5931.5L13881.8 5931.24L13827 5930.98V5876.49V5822H13772H13717V5767V5712H13662H13607V5657V5602H13497.5H13388L13387.8 5547.25L13387.5 5492.5H12784H12180.5L12180.2 5547.25L12180 5601.99L12070.2 5602.25L11960.5 5602.5L11960.2 5657.25L11960 5712H11905.5H11851V5767V5822H11796H11741V5876.49V5930.98L11686.2 5931.24L11631.5 5931.5L11631.2 5986.25L11631 6041H11576.5H11522V6151V6261H11467H11412V6755V7249H11467H11522V7359V7469H11576.5H11631V7523.5V7578H11741H11851V7633V7688H12235.5H12620V7633V7578H12675H12730V7523.5V7469H12784.5H12839V7414V7359H12894H12949V7139V6919H12894H12839V6864V6808.99L12674.2 6809.25L12509.5 6809.5L12509.2 6919.25L12509 7029H12290H12071V6755V6481H12126H12181V6426.01V6371.02L12235.8 6370.76L12290.5 6370.5L12290.8 6316.25L12291 6262H12345.5H12400V6207V6152H12729H13058L13058.2 6206.75L13058.5 6261.5L13167.8 6261.75L13277 6262.01V6316.5V6371H13332H13387V6481V6591H13442H13497V6700.5V6810H13551.5H13606V7139V7468H13551.5H13497V7632.5V7797H13442H13387V7852V7907H13332H13277V8016.5V8126H13222.5H13168V8181V8236H13113H13058V8291V8346H13003H12948V8400.5V8455H12838.5H12729V8510V8565H12619H12509V8620V8675H12289.5H12070V8729.5V8784H11851H11632V8729.5V8675H11577H11522V8620V8565H11467.5H11413V8455.5V8346H11358H11303V8291V8236H11248H11193V8126V8016H11138.5H11084V7961.5V7907H11029H10974V7797V7687H10919H10864L10863.8 7632.25L10863.5 7577.5L10808.8 7577.24L10754 7576.98V7467.49V7358H10699.5H10645L10644.8 7303.25L10644.5 7248.5L10589.8 7248.24L10535 7247.98L10534.8 7193.24L10534.5 7138.5L10479.8 7138.24L10425 7137.98V7083.49V7029H10370H10315V6974V6919H10260.5H10206L10205.8 6864.25L10205.5 6809.5L10150.8 6809.24L10096 6808.98V6754.49V6700H10041H9986V6645V6590H9931H9876V6535V6480H9821.51H9767.02L9766.76 6425.25L9766.5 6370.5L9711.75 6370.24L9657 6369.98V6315.49V6261H9602H9547V6206V6151H9492.5H9438V6096.5V6042H9547.5H9657V5987V5932H9766.5H9876V5877.5V5823H9931H9986V5768V5713H10041H10096V5658V5603H10151H10206V5548V5493H10260.5H10315V5438.5V5384H10370H10425V5329V5274H10589H10753L10753.2 5328.75L10753.5 5383.5H10918.5H11083.5L11083.8 5328.75L11084 5274H11303H11522V5219V5164H11577H11632V5109V5054H11687H11742V4999.51V4945.02L11796.8 4944.76L11851.5 4944.5L11851.8 4889.75L11852 4835H11906.5H11961V4725.51V4616.02L12015.8 4615.76L12070.5 4615.5L12070.8 4066.25L12071 3517H12016H11961V3462.5V3408H11906.5H11852V3298V3188H11797H11742V3133V3078H11632H11522V3023.5V2969H11357.5H11193V2914V2859L10973.2 2859.25L10753.5 2859.5L10753.2 2914.25L10753 2969H10699H10645L10644.8 2694.75L10644.5 2420.5L10589.8 2420.24L10535 2419.98V2255.49V2091H10480H10425V2036V1981H10370H10315V1871.5V1762H10260.5H10206V1707V1652H10151H10096V1597V1542H10041H9986V1487V1432H9931H9876V1377.5V1323H9821.5H9767V1268V1213H9657H9547V1158V1103H9492.51H9438.02L9437.76 1048.25L9437.5 993.5L9272.75 993.247L9108 992.994V938.497V884H8943.5H8779V829V774H8669.5H8560V719.5V665H8669.5H8779V610V555H8834H8889V445V335H8614H8339V390V445H8229.5H8120V499.5V554H8065.5H8011V445V336H8066H8121V226V116H7901H7681V170.491V224.983L7626.25 225.241L7571.5 225.5L7571.24 280.241L7570.98 334.983L7516.24 335.241L7461.5 335.5L7461.25 444.75L7460.99 554H7406.5H7352V719V884H7242H7132V938.497V992.994L6967.75 993.247L6803.5 993.5L6803.24 1048.25L6802.98 1103H6747.99H6693V1158V1213H6583.5H6474V1268V1323H6419H6364V1377.49V1431.98L6309.25 1432.24L6254.5 1432.5L6254.24 1487.25L6253.98 1542H6199.49H6145V1597V1652H6090H6035V1707V1762H5980H5925V1816.49V1870.98L5870.25 1871.24L5815.5 1871.5L5815.25 1981.25L5814.99 2091H5760.5H5706V2200.5V2310H5651H5596V2474.49V2638.98L5541.25 2639.24L5486.5 2639.5L5486.25 2858.74L5486 3077.98L5431.25 3078.24L5376.5 3078.5L5376.24 3133.25L5375.98 3188H5211.49H5047V3243V3298H4992.5H4938V3353V3408H4883H4828V3462.5V3517H4773H4718V3572V3627H4663H4608V3736.5V3846H4553.5H4499V4231V4616H4553.5H4608V4725.5V4835H4663H4718V4890V4945H4773H4828V4999.5V5054H4718.5H4609V4999V4944H4499.5H4390V4889V4834H4335H4280V4779V4724H4170.5H4061V4669.5V4615H4006H3951V4560V4505H3895.5H3840V4724.5V4944H3785.5H3731V4505V4066H3676.5H3622.01L3621.75 3956.25L3621.5 3846.5L3566.75 3846.24L3512 3845.98V3791.49V3737H3402H3292V3682V3627H3182.5H3073V3572V3517H3018H2963V3407.5V3298H2908.5H2854.01L2853.75 3188.25L2853.5 3078.5L2798.75 3078.24L2744 3077.98V3023.49V2969H2634H2524V2914V2859H2469.51H2415.02L2414.76 2804.25L2414.5 2749.5L1975.25 2749.25L1536 2749V2804V2859H1481H1426V2914V2969H1371H1316V3023.5V3078H1261.5H1207V3188V3298H1097H987V3353V3408H877.5H768V3462.5V3517H713H658V3572V3627H603H548V3736.49V3845.98L493.25 3846.24L438.5 3846.5L438.248 4120.75L437.996 4395H328.498H219V4505V4615H164H109V4834.5V5054H54.5H0V5164V5274H54.5H109V5438.5V5603H163.996H218.991L219.246 5712.75L219.5 5822.5L274.25 5822.76L329 5823.02V5877.51V5932H383.491H437.983L438.241 5986.75L438.5 6041.5L548.25 6041.75L658 6042.01V6097V6152H767.491H876.983L877.241 6206.75L877.5 6261.5L1097.25 6261.75L1317 6262V6207V6152H1426.5H1536V6261.5V6371L1975.25 6370.75L2414.5 6370.5L2414.76 6316.25L2415.02 6262H2469.51H2524V6207V6152H2633.5H2743V6206.5V6261H2688H2633V6316V6371H2743H2853V6426V6481H3017.5H3182V6536V6591H3346.5H3511V6645.5V6700H3785.5H4060V6755V6810H4389H4718V6865V6920H5485.99H6253.98L6254.24 6974.75L6254.5 7029.5L6364.25 7029.75L6474 7030.01V7084V7137.98L6419.25 7138.24L6364.5 7138.5V7523V7907.5L6419.25 7907.76L6474 7908.02V7962.01V8016H6364.5H6255V7961.5V7907H5761H5267V7961.5V8015.99L5157.25 8016.25L5047.5 8016.5L5047.24 8071.25L5046.98 8126H4992.49H4938V8181V8236H4828H4718V8345.49V8454.98L4663.25 8455.24L4608.5 8455.5L4608.24 8510.25L4607.98 8565H4553.49H4499V8620V8675H4444H4389V8784.5V8894H4334H4279V8948.99V9003.98L4224.25 9004.24L4169.5 9004.5L4169.25 9223.75L4169 9443H4115.01H4061.02L4060.76 9388.25L4060.5 9333.5L3950.76 9333.25L3841.02 9332.99L3840.76 9278.25L3840.5 9223.5L3621.25 9223.25L3402 9223V9168.5V9114H2962.5H2523V9168.5V9223H2468.5H2414V9278V9333H2359H2304V9388V9442.99L2194.25 9443.25L2084.5 9443.5L2084.24 9498.25L2083.98 9553H2029.49H1975V9607.5V9662H1920H1865V9772V9882H1810H1755L1755.25 10266.2L1755.5 10650.5L1810.25 10650.8L1865 10651V10815.5V10980H1920H1975V11035V11090H2029.5H2084V11199.5V11309H2139H2194V11364V11419H2249H2304V11528.5V11638H2359H2414V11693V11748H2468.49H2522.98L2523.24 11802.8L2523.5 11857.5L2578.25 11857.8L2633 11858V11913V11968H2688H2743V12022.5V12077H2798H2853V12132V12187H2907.49H2961.98L2962.24 12241.8L2962.5 12296.5L3017.24 12296.8L3071.98 12297L3072.24 12351.8L3072.5 12406.5L3127.25 12406.8L3182 12407V12461.5V12516H3237H3292V12571V12626H3346.49H3400.98L3401.24 12680.8L3401.5 12735.5L3511.24 12735.8L3620.98 12736L3621.24 12790.8L3621.5 12845.5L3675.75 12845.8L3730 12846V12900.5V12955H3840H3950V13010V13065H4059.49H4168.98L4169.24 13119.8L4169.5 13174.5L4334.25 13174.8L4499 13175V13229.5V13284H4664H4829V13229.5V13175H4993.5H5158V13120V13065H5213H5268V13010V12955H5322.5H5377V12900.5V12846L5431.75 12845.8L5486.5 12845.5L5486.75 12735.8L5487.01 12626H5542H5597V12516.5V12407L5651.75 12406.8L5706.5 12406.5L5706.75 12187.2L5707 11968H5761.5H5816V11693.5V11419H5871H5926V11199.5V10980H5981H6036V10815.5V10651L6090.75 10650.8L6145.5 10650.5L6145.75 10431.2L6146 10212H6200.5H6255V10102V9992H6310H6365V9882.5V9773H6419.5H6474V9828V9883H6583.5H6693V9937.5V9992H6803H6913V10047V10102H7077.5H7242V10157V10212H7461.5H7681V10267V10322H8065.5H8450V10267V10212H8504.5H8559V10267V10322H8613.5H8668V10376.5V10431H8723H8778V10486V10541H8833H8888V10595.5V10650H8833H8778V11089.5V11529H8833H8888V11693.5V11858H8943H8998V12022.5V12187H9052.5H9106.99L9107.25 12296.8L9107.5 12406.5L9162.25 12406.8L9217 12407V12461.5V12516H9327H9437V12571V12626H9602H9767V12571V12516H9821.5H9876V12571V12626H10041H10206V12571V12516H10260.5H10315V12461.5V12407L10424.8 12406.8L10534.5 12406.5L10534.8 12351.8L10535 12297L10589.8 12296.8L10644.5 12296.5L10644.8 12241.8L10645 12187H10699.5H10754V11967V11747H10699.5H10645V11637.5V11528H10590H10535V11418V11308H10480H10425V11254V11200L10479.8 11199.8L10534.5 11199.5L10534.8 10705.2L10535 10211H10480H10425V10101.5V9992H10370H10315V9882V9772H10260.5H10206V9662.5V9553H10151H10096V9498V9443H10041H9986V9388V9333H9931H9876V9278V9223H9821.5H9767V9114V9005H9821.5H9876V9060V9115H9930.5H9985V9169.5V9224H10149.5H10314L10314.2 9278.75L10314.5 9333.5L10479.2 9333.75L10644 9334.01V9443.5V9553H10589H10534V9608V9663H10589H10644V9718V9773H10753.5H10863V9828V9883H11083H11303V9828V9773H11412.5H11522V9718V9663H11577H11632V9553.5V9444H12126H12620V9389V9334H12784.5H12949V9279V9224H13058.5H13168V9169.5V9115H13223H13278V9060V9005H13388H13498V8950V8895H13552.5H13607V8840V8785H13662H13717V8730.51V8676.02L13771.8 8675.76L13826.5 8675.5L13826.8 8565.76L13827 8456.02L13881.8 8455.76L13936.5 8455.5L13936.8 8400.75L13937 8346H13991.5H14046V8236.5V8127H14101H14156V8017.5V7908H14202H14248V10690V13472H14257H14266V6736V0H14257H14248V3240ZM8010 609.5V664H7955.5H7901V609.5V555H7955.5H8010V609.5ZM8778 1488V1543H8942.49H9106.98L9107.24 1597.75L9107.5 1652.5L9162.25 1652.76L9217 1653.02V1707.51V1762H9327H9437V1817V1872H9491.5H9545.99L9546.25 1981.75L9546.5 2091.5L9601.25 2091.76L9656 2092.02V2201.51V2311H9711H9766V2694.5V3078H9711H9656V3188V3298H9601H9546V3353V3408H9491.5H9437V3462.5V3517H9163H8889V3462.5V3408H8833.5H8778V3463V3518H8833H8888V3628V3738H8943H8998V3847.5V3957H9052.5H9107V4066.5V4176H9052.5H8998V4340.5V4505H8943H8888V4560V4615H8833H8778V4669.49V4723.98L8723.25 4724.24L8668.5 4724.5L8668.24 4779.25L8667.98 4834H8613.49H8559V4889V4944H8449H8339V4999V5054H8119.5H7900V5108.5V5163H7297H6694V5108.5V5054H6529.5H6365V4999V4944H6255.51H6146.02L6145.76 4889.25L6145.5 4834.5L6090.75 4834.24L6036 4833.98V4778.99V4724H5981H5926V4669.5V4615H5871H5816V4231V3847H5871H5926V3737.5V3628H5981H6036V3573.01V3518.02L6090.75 3517.76L6145.5 3517.5L6145.76 3462.75L6146.02 3408H6090.51H6035V3462.5V3517H5925.5H5816V2969V2421H5871H5926V2311V2201H5981H6036V2146.51V2092.02L6090.75 2091.76L6145.5 2091.5L6145.76 2036.75L6146.02 1982H6200.51H6255V1927V1872H6310H6365V1817V1762H6474.5H6584V1707.5V1653H6803H7022V1707.5V1762H7132H7242V1817V1872H7297H7352V1927V1982H7406.49H7460.98L7461.24 2036.75L7461.5 2091.5L7516.75 2091.76L7572 2092.02V1982.01V1872H7627H7682V1817V1762H7737H7792V1707.5V1653H7901.5H8011V1598V1543H8120.5H8230V1488V1433H8504H8778V1488ZM8230 2255V2310H8175H8120V2365V2420H8065H8010V2749.5V3079H8120H8230V3134V3189H8504.5H8779V3134V3079H8834H8889V2969.51V2860.02L8943.75 2859.76L8998.5 2859.5L8998.75 2694.75L8999.01 2530H8944H8889V2420V2310H8834.01H8779.02L8778.76 2255.25L8778.5 2200.5L8504.25 2200.25L8230 2200V2255ZM6474 2365V2420H6419H6364V2475V2530H6309H6254V2859.5V3189H6309H6364V3243.5V3298H6309H6254V3353V3408H6309.5H6365V3353.5V3299H6474.5H6584V3244V3189H6748.5H6913V3244V3299L7132.75 3298.75L7352.5 3298.5L7352.76 3243.75L7353.02 3189H7462.51H7572V3079V2969H7517H7462V2914V2859H7242.5H7023V2694.5V2530H6968.5H6914.01L6913.75 2420.25L6913.5 2310.5L6693.75 2310.25L6474 2310V2365ZM11302 3463V3518H11357H11412V3573V3628H11467H11522V3737.5V3847H11576.5H11631V4066V4285H11576.5H11522V4395V4505H11467H11412V4560V4615H11357H11302V4669.49V4723.98L11247.2 4724.24L11192.5 4724.5L11192.2 4779.25L11192 4834H10973H10754V4779V4724H10644.5H10535V4450V4176H10480H10425V4066.5V3957H10480H10535V3792.51V3628.02L10589.8 3627.76L10644.5 3627.5L10644.8 3572.75L10645 3518H10699.5H10754V3463V3408H11028H11302V3463ZM2523 3572.5V3627H2469H2415V3572.5V3518H2469H2523V3572.5ZM5486 3683V3738H5541H5596V3791.99V3845.98L5541.25 3846.24L5486.5 3846.5L5486.25 3956.24L5485.99 4065.98L5431.25 4066.24L5376.5 4066.5L5376.25 4395.75L5376 4725H5431H5486V4834.5V4944H5377H5268V4889V4834H5213H5158V4779V4724H5103H5048V4669.5V4615H4993H4938V4286V3957H4993H5048V3847.5V3738.01L5157.75 3737.75L5267.5 3737.5L5267.76 3682.75L5268.02 3628H5377.01H5486V3683ZM2633 3792V3846H2578.5H2524V3792V3738H2578.5H2633V3792ZM2743 4011.5V4066H2688.5H2634V4011.5V3957H2688.5H2743V4011.5ZM1426 4121.5V4176H1371.5H1317V4121.5V4067H1371.5H1426V4121.5ZM1536 4286V4395H1481.5H1427V4286V4177H1481.5H1536V4286ZM1646 4450.5V4505H1591.5H1537V4450.5V4396H1591.5H1646V4450.5ZM2523 4450.5V4505H2469H2415V4450.5V4396H2469H2523V4450.5ZM1755 4560.5V4615H1700.5H1646V4560.5V4506H1700.5H1755V4560.5ZM2414 4560.5V4615H2359.5H2305V4560.5V4506H2359.5H2414V4560.5ZM2304 4725V4834H2249H2194V5109V5384H2249H2304V5438V5492H2194.5H2085V5108.5V4725H2140H2195V4670.5V4616H2249.5H2304V4725ZM658 4889.5V4944H603.5H549V4889.5V4835H603.5H658V4889.5ZM768 4999.5V5054H713.5H659V4999.5V4945H713.5H768V4999.5ZM3401 5108.5V5163H3346.5H3292V5108.5V5054H3346.5H3401V5108.5ZM3730 5108.5V5163H3676H3622V5108.5V5054H3676H3730V5108.5ZM5047 5108.5V5163H4938H4829V5108.5V5054H4938H5047V5108.5ZM877 5218.5V5273H823H769V5218.5V5164H823H877V5218.5ZM3292 5218.5V5273H3237.5H3183V5218.5V5164H3237.5H3292V5218.5ZM5267 5218.5V5273H5157.5H5048V5218.5V5164H5157.5H5267V5218.5ZM987 5328.5V5383H932.5H878V5328.5V5274H932.5H987V5328.5ZM3072 5328.5V5383H3017.5H2963V5328.5V5274H3017.5H3072V5328.5ZM5596 5328.5V5383H5432H5268V5328.5V5274H5432H5596V5328.5ZM1097 5438V5492H1042.5H988V5438V5384H1042.5H1097V5438ZM2962 5438V5492H2908H2854V5438V5384H2908H2962V5438ZM5925 5438V5492H5761H5597V5438V5384H5761H5925V5438ZM2084 5547.5V5602H2030H1976V5547.5V5493H2030H2084V5547.5ZM2853 5547.5V5602H2579H2305V5547.5V5493H2579H2853V5547.5ZM6474 5547.5V5602H6200H5926V5547.5V5493H6200H6474V5547.5ZM1975 5657.5V5712H1865H1755V5821.5V5931H1700.5H1646V5821.5V5712H1591.5H1537V5657.5V5603H1756H1975V5657.5ZM6913 5657.5V5712H6748.5H6584V5657.5V5603H6748.5H6913V5657.5ZM1646 6096.5V6151H1591.5H1537V6096.5V6042H1591.5H1646V6096.5ZM9766 7413V7577H9711.5H9657V7413V7249H9711.5H9766V7413ZM9876 7907V8126H9821.5H9767V7907V7688H9821.5H9876V7907ZM6693 8071.5V8126H6584H6475V8071.5V8017H6584H6693V8071.5ZM6913 8181.5V8236H6803.5H6694V8181.5V8127H6803.5H6913V8181.5ZM9985 8510.5V8894H9930.5H9876V8510.5V8127H9930.5H9985V8510.5ZM7022 8291.5V8346H6968H6914V8291.5V8237H6968H7022V8291.5ZM10863 9279V9443H10808.5H10754V9279V9115H10808.5H10863V9279ZM3292 9278.5V9333H3237.5H3183V9278.5V9224H3237.5H3292V9278.5ZM3182 9388.5V9443H3127.5H3073V9388.5V9334H3127.5H3182V9388.5ZM3072 9553V9662H3017.5H2963V9553V9444H3017.5H3072V9553ZM4279 9498.5V9553H4224.5H4170V9498.5V9444H4224.5H4279V9498.5ZM2194 9773V9992H2139.5H2085V9773V9554H2139.5H2194V9773ZM4389 9608V9662H4334.5H4280V9608V9554H4334.5H4389V9608ZM4499 9717.5V9772H4444.5H4390V9717.5V9663H4444.5H4499V9717.5ZM4608 9827.5V9882H4554H4500V9827.5V9773H4554H4608V9827.5ZM2633 9937.5V9992H2524H2415V9937.5V9883H2524H2633V9937.5ZM3072 9937.5V9992H3017.5H2963V9937.5V9883H3017.5H3072V9937.5ZM4718 9937.5V9992H4663.5H4609V9937.5V9883H4663.5H4718V9937.5ZM3511 10046.5V10101H3456.5H3402V10046.5V9992H3456.5H3511V10046.5ZM3730 10156.5V10211H3676H3622V10156.5V10102H3676H3730V10156.5ZM3840 10266.5V10321H3785.5H3731V10266.5V10212H3785.5H3840V10266.5ZM3950 10376V10430H3895.5H3841V10376V10322H3895.5H3950V10376ZM4060 10485.5V10540H4005.5H3951V10485.5V10431H4005.5H4060V10485.5ZM4169 10595.5V10650H4115H4061V10595.5V10541H4115H4169V10595.5ZM4279 10705.5V10760H4224.5H4170V10705.5V10651H4224.5H4279V10705.5ZM4389 10815V10869H4334.5H4280V10815V10761H4334.5H4389V10815ZM4499 10924.5V10979H4444.5H4390V10924.5V10870H4444.5H4499V10924.5ZM4608 11144.5V11199H4554H4500V11144.5V11090H4554H4608V11144.5ZM4718 11254V11308H4663.5H4609V11254V11200H4663.5H4718V11254ZM9546 11363.5V11418H9492H9438V11363.5V11309H9492H9546V11363.5ZM10314 11363.5V11418H10260H10206V11363.5V11309H10260H10314V11363.5ZM4828 11473.5V11528H4773.5H4719V11473.5V11419H4773.5H4828V11473.5ZM10205 11473.5V11528H9931H9657V11473.5V11419H9931H10205V11473.5ZM4938 11583.5V11638H4883.5H4829V11583.5V11529H4883.5H4938V11583.5ZM5047 11802.5V11857H4992.5H4938V11802.5V11748H4992.5H5047V11802.5Z" fill="#1B50FF"/>
</g>
<defs>
<clipPath id="clip0_155_49876">
<rect width="14266" height="13472" fill="white"/>
</clipPath>
</defs>
</svg>
