<svg width="32" height="33" viewBox="0 0 32 33" fill="none" xmlns="http://www.w3.org/2000/svg">
<rect x="16" width="1.33333" height="1.28" fill="black"/>
<rect x="17.334" width="1.33333" height="1.28" fill="black"/>
<rect x="18.666" width="1.33333" height="1.28" fill="black"/>
<rect x="20" width="1.33333" height="1.28" fill="black"/>
<rect x="21.334" width="1.33333" height="1.28" fill="black"/>
<rect x="22.666" width="1.33333" height="1.28" fill="black"/>
<rect x="24" width="1.33333" height="1.28" fill="black"/>
<rect x="14.666" y="1.27979" width="1.33333" height="1.28" fill="black"/>
<rect x="16" y="1.27979" width="1.33333" height="1.28" fill="black"/>
<rect x="24" y="1.27979" width="1.33333" height="1.28" fill="black"/>
<rect x="25.334" y="1.27979" width="1.33333" height="1.28" fill="black"/>
<rect x="13.334" y="2.56006" width="1.33333" height="1.28" fill="black"/>
<rect x="14.666" y="2.56006" width="1.33333" height="1.28" fill="black"/>
<rect x="20" y="2.56006" width="1.33333" height="1.28" fill="black"/>
<rect x="25.334" y="2.56006" width="1.33333" height="1.28" fill="black"/>
<rect x="26.666" y="2.56006" width="1.33333" height="1.28" fill="black"/>
<rect x="13.334" y="3.83984" width="1.33333" height="1.28" fill="black"/>
<rect x="18.666" y="3.83984" width="1.33333" height="1.28" fill="black"/>
<rect x="21.334" y="3.83984" width="1.33333" height="1.28" fill="black"/>
<rect x="25.334" y="3.83984" width="1.33333" height="1.28" fill="black"/>
<rect x="28" y="3.83984" width="1.33333" height="1.28" fill="black"/>
<rect x="29.334" y="3.83984" width="1.33333" height="1.28" fill="black"/>
<rect x="12" y="5.12012" width="1.33333" height="1.28" fill="black"/>
<rect x="13.334" y="5.12012" width="1.33333" height="1.28" fill="black"/>
<rect x="25.334" y="5.12012" width="1.33333" height="1.28" fill="black"/>
<rect x="29.334" y="5.12012" width="1.33333" height="1.28" fill="black"/>
<rect x="30.666" y="5.12012" width="1.33333" height="1.28" fill="black"/>
<rect x="12" y="6.3999" width="1.33333" height="1.28" fill="black"/>
<rect x="25.334" y="6.3999" width="1.33333" height="1.28" fill="black"/>
<rect x="26.666" y="6.3999" width="1.33333" height="1.28" fill="black"/>
<rect x="28" y="6.3999" width="1.33333" height="1.28" fill="black"/>
<rect x="29.334" y="6.3999" width="1.33333" height="1.28" fill="black"/>
<rect x="12" y="7.68018" width="1.33333" height="1.28" fill="black"/>
<rect x="13.334" y="7.68018" width="1.33333" height="1.28" fill="black"/>
<rect x="14.666" y="7.68018" width="1.33333" height="1.28" fill="black"/>
<rect x="16" y="7.68018" width="1.33333" height="1.28" fill="black"/>
<rect x="17.334" y="7.68018" width="1.33333" height="1.28" fill="black"/>
<rect x="25.334" y="7.68018" width="1.33333" height="1.28" fill="black"/>
<rect x="10.666" y="8.95996" width="1.33333" height="1.28" fill="black"/>
<rect x="12" y="8.95996" width="1.33333" height="1.28" fill="black"/>
<rect x="18.666" y="8.95996" width="1.33333" height="1.28" fill="black"/>
<rect x="25.334" y="8.95996" width="1.33333" height="1.28" fill="black"/>
<rect x="9.33398" y="10.2402" width="1.33333" height="1.28" fill="black"/>
<rect x="10.666" y="10.2402" width="1.33333" height="1.28" fill="black"/>
<rect x="20" y="10.2402" width="1.33333" height="1.28" fill="black"/>
<rect x="25.334" y="10.2402" width="1.33333" height="1.28" fill="black"/>
<rect x="9.33398" y="11.52" width="1.33333" height="1.28" fill="black"/>
<rect x="20" y="11.52" width="1.33333" height="1.28" fill="black"/>
<rect x="25.334" y="11.52" width="1.33333" height="1.28" fill="black"/>
<rect x="8" y="12.7998" width="1.33333" height="1.28" fill="black"/>
<rect x="9.33398" y="12.7998" width="1.33333" height="1.28" fill="black"/>
<rect x="18.666" y="12.7998" width="1.33333" height="1.28" fill="black"/>
<rect x="20" y="12.7998" width="1.33333" height="1.28" fill="black"/>
<rect x="25.334" y="12.7998" width="1.33333" height="1.28" fill="black"/>
<rect x="8" y="14.0801" width="1.33333" height="1.28" fill="black"/>
<rect x="17.334" y="14.0801" width="1.33333" height="1.28" fill="black"/>
<rect x="20" y="14.0801" width="1.33333" height="1.28" fill="black"/>
<rect x="25.334" y="14.0801" width="1.33333" height="1.28" fill="black"/>
<rect x="8" y="15.3599" width="1.33333" height="1.28" fill="black"/>
<rect x="17.334" y="15.3599" width="1.33333" height="1.28" fill="black"/>
<rect x="20" y="15.3599" width="1.33333" height="1.28" fill="black"/>
<rect x="25.334" y="15.3599" width="1.33333" height="1.28" fill="black"/>
<rect x="6.66602" y="16.6401" width="1.33333" height="1.28" fill="black"/>
<rect x="16" y="16.6401" width="1.33333" height="1.28" fill="black"/>
<rect x="18.666" y="16.6401" width="1.33333" height="1.28" fill="black"/>
<rect x="25.334" y="16.6401" width="1.33333" height="1.28" fill="black"/>
<rect x="5.33398" y="17.9199" width="1.33333" height="1.28" fill="black"/>
<rect x="14.666" y="17.9199" width="1.33333" height="1.28" fill="black"/>
<rect x="17.334" y="17.9199" width="1.33333" height="1.28" fill="black"/>
<rect x="18.666" y="17.9199" width="1.33333" height="1.28" fill="black"/>
<rect x="24" y="17.9199" width="1.33333" height="1.28" fill="black"/>
<rect x="2.66602" y="19.2002" width="1.33333" height="1.28" fill="black"/>
<rect x="4" y="19.2002" width="1.33333" height="1.28" fill="black"/>
<rect x="12" y="19.2002" width="1.33333" height="1.28" fill="black"/>
<rect x="16" y="19.2002" width="1.33333" height="1.28" fill="black"/>
<rect x="17.334" y="19.2002" width="1.33333" height="1.28" fill="black"/>
<rect x="24" y="19.2002" width="1.33333" height="1.28" fill="black"/>
<rect x="1.33398" y="20.48" width="1.33333" height="1.28" fill="black"/>
<rect x="2.66602" y="20.48" width="1.33333" height="1.28" fill="black"/>
<rect x="12" y="20.48" width="1.33333" height="1.28" fill="black"/>
<rect x="13.334" y="20.48" width="1.33333" height="1.28" fill="black"/>
<rect x="14.666" y="20.48" width="1.33333" height="1.28" fill="black"/>
<rect x="22.666" y="20.48" width="1.33333" height="1.28" fill="black"/>
<rect x="2.66602" y="21.7598" width="1.33333" height="1.28" fill="black"/>
<rect x="4" y="21.7598" width="1.33333" height="1.28" fill="black"/>
<rect x="5.33398" y="21.7598" width="1.33333" height="1.28" fill="black"/>
<rect x="6.66602" y="21.7598" width="1.33333" height="1.28" fill="black"/>
<rect x="8" y="21.7598" width="1.33333" height="1.28" fill="black"/>
<rect x="9.33398" y="21.7598" width="1.33333" height="1.28" fill="black"/>
<rect x="10.666" y="21.7598" width="1.33333" height="1.28" fill="black"/>
<rect x="21.334" y="21.7598" width="1.33333" height="1.28" fill="black"/>
<rect x="5.33398" y="23.04" width="1.33333" height="1.28" fill="black"/>
<rect x="18.666" y="23.04" width="1.33333" height="1.28" fill="black"/>
<rect x="20" y="23.04" width="1.33333" height="1.28" fill="black"/>
<rect x="4" y="24.3198" width="1.33333" height="1.28" fill="black"/>
<rect x="5.33398" y="24.3198" width="1.33333" height="1.28" fill="black"/>
<rect x="6.66602" y="24.3198" width="1.33333" height="1.28" fill="black"/>
<rect x="8" y="24.3198" width="1.33333" height="1.28" fill="black"/>
<rect x="9.33398" y="24.3198" width="1.33333" height="1.28" fill="black"/>
<rect x="10.666" y="24.3198" width="1.33333" height="1.28" fill="black"/>
<rect x="12" y="24.3198" width="1.33333" height="1.28" fill="black"/>
<rect x="13.334" y="24.3198" width="1.33333" height="1.28" fill="black"/>
<rect x="14.666" y="24.3198" width="1.33333" height="1.28" fill="black"/>
<rect x="16" y="24.3198" width="1.33333" height="1.28" fill="black"/>
<rect x="17.334" y="24.3198" width="1.33333" height="1.28" fill="black"/>
<rect x="4" y="25.6001" width="1.33333" height="1.28" fill="black"/>
<rect x="9.33398" y="25.6001" width="1.33333" height="1.28" fill="black"/>
<rect x="16" y="25.6001" width="1.33333" height="1.28" fill="black"/>
<rect x="2.66602" y="26.8799" width="1.33333" height="1.28" fill="black"/>
<rect x="8" y="26.8799" width="1.33333" height="1.28" fill="black"/>
<rect x="14.666" y="26.8799" width="1.33333" height="1.28" fill="black"/>
<rect x="16" y="26.8799" width="1.33333" height="1.28" fill="black"/>
<rect x="1.33398" y="28.1602" width="1.33333" height="1.28" fill="black"/>
<rect x="2.66602" y="28.1602" width="1.33333" height="1.28" fill="black"/>
<rect x="4" y="28.1602" width="1.33333" height="1.28" fill="black"/>
<rect x="5.33398" y="28.1602" width="1.33333" height="1.28" fill="black"/>
<rect x="6.66602" y="28.1602" width="1.33333" height="1.28" fill="black"/>
<rect x="13.334" y="28.1602" width="1.33333" height="1.28" fill="black"/>
<rect x="14.666" y="28.1602" width="1.33333" height="1.28" fill="black"/>
<rect y="29.4399" width="1.33333" height="1.28" fill="black"/>
<rect x="1.33398" y="29.4399" width="1.33333" height="1.28" fill="black"/>
<rect x="10.666" y="29.4399" width="1.33333" height="1.28" fill="black"/>
<rect x="12" y="29.4399" width="1.33333" height="1.28" fill="black"/>
<rect x="1.33398" y="30.7202" width="1.33333" height="1.28" fill="black"/>
<rect x="2.66602" y="30.7202" width="1.33333" height="1.28" fill="black"/>
<rect x="4" y="30.7202" width="1.33333" height="1.28" fill="black"/>
<rect x="5.33398" y="30.7202" width="1.33333" height="1.28" fill="black"/>
<rect x="6.66602" y="30.7202" width="1.33333" height="1.28" fill="black"/>
<rect x="8" y="30.7202" width="1.33333" height="1.28" fill="black"/>
<rect x="9.33398" y="30.7202" width="1.33333" height="1.28" fill="black"/>
</svg>
