<svg width="32" height="32" viewBox="0 0 32 32" fill="none" xmlns="http://www.w3.org/2000/svg">
<path d="M30.9497 15.1499H29.4297V22.7699H30.9497V19.7199V19.3331V19V18.595V18.1899V15.1499Z" fill="#000001"/>
<path d="M27.9109 21.2402H26.3809V24.2902H29.4309V22.7702H27.9109V21.2402Z" fill="#000001"/>
<path d="M27.9109 9.05029H26.3809V12.1003H27.9109V9.05029Z" fill="#000001"/>
<path d="M26.3801 19.7202H23.3301V21.2402H26.3801V19.7202Z" fill="#000001"/>
<path d="M26.3794 7.53027H24.8594V9.05027H26.3794V7.53027Z" fill="#000001"/>
<path d="M26.3801 24.29H23.3301V25.81H26.3801V24.29Z" fill="#000001"/>
<path d="M21.8106 21.2402V22.7702H12.6706V21.2402H11.1406V24.2902H23.3306V21.2402H21.8106Z" fill="#000001"/>
<path d="M17.2395 16.6699H14.1895V18.1899H17.2395V16.6699Z" fill="#000001"/>
<path d="M14.1899 7.53027H12.6699V9.05027H14.1899V7.53027Z" fill="#000001"/>
<path d="M12.6706 9.05029H11.1406V12.1003H12.6706V9.05029Z" fill="#000001"/>
<path d="M11.1396 19.7202H8.09961V21.2402H11.1396V19.7202Z" fill="#000001"/>
<path d="M11.1396 24.29H8.09961V25.81H11.1396V24.29Z" fill="#000001"/>
<path d="M29.4303 15.15V12.1H27.9103V13.62H20.2903V7.53H24.8603V6H14.1903V7.53H18.7603V13.62H11.1403V12.1H9.62031V13.62H6.57031V15.15H29.4303Z" fill="#000001"/>
<path d="M6.56953 21.2402V22.7702H3.51953V24.2902H8.09953V21.2402H6.56953Z" fill="#000001"/>
<path d="M6.56953 15.1499H3.51953V16.6699H6.56953V15.1499Z" fill="#000001"/>
<path d="M3.52 16.6699H2V22.7699H3.52V16.6699Z" fill="#000001"/>
</svg>
