<svg width="32" height="32" viewBox="0 0 32 32" fill="none" xmlns="http://www.w3.org/2000/svg">
<path d="M32.0005 1.52002H30.4805V6.09002H32.0005V1.52002Z" fill="#000001"/>
<path d="M30.4792 6.08984H28.9492V9.13984H30.4792V6.08984Z" fill="#000001"/>
<path d="M30.4797 0H27.4297V1.52H30.4797V0Z" fill="#000001"/>
<path d="M28.9497 9.14014H27.4297V12.1901H28.9497V9.14014Z" fill="#000001"/>
<path d="M27.4304 12.1899H25.9004V15.2399H27.4304V12.1899Z" fill="#000001"/>
<path d="M27.4304 1.52002H25.9004V4.57002H27.4304V1.52002Z" fill="#000001"/>
<path d="M25.9009 15.2402H24.3809V18.2802H25.9009V15.2402Z" fill="#000001"/>
<path d="M25.9009 4.56982H24.3809V7.61982H25.9009V4.56982Z" fill="#000001"/>
<path d="M24.3794 22.8599H22.8594V27.4299H24.3794V22.8599Z" fill="#000001"/>
<path d="M24.3794 18.2798H22.8594V21.3298H24.3794V18.2798Z" fill="#000001"/>
<path d="M24.3794 7.62012H22.8594V10.6701H24.3794V7.62012Z" fill="#000001"/>
<path d="M22.8601 10.6699H21.3301V13.7099H22.8601V10.6699Z" fill="#000001"/>
<path d="M21.3295 25.8999H19.8095V27.4299H18.2895V25.8999H16.7595V24.3799H15.2395V25.8999H13.7095V22.8599H12.1895V27.4299H10.6695V28.9499H9.13953V30.4699H1.51953V31.9999H18.2895V30.4699H21.3295V28.9499H22.8595V27.4299H21.3295V25.8999Z" fill="#000001"/>
<path d="M22.8605 21.3301H19.8105V22.8601H22.8605V21.3301Z" fill="#000001"/>
<path d="M21.3305 13.71H19.8105V16.76H21.3305V13.71Z" fill="#000001"/>
<path d="M19.8102 21.3298V16.7598H18.2902V19.8098H15.2402V21.3298H19.8102Z" fill="#000001"/>
<path d="M15.2409 21.3301H13.7109V22.8601H15.2409V21.3301Z" fill="#000001"/>
<path d="M15.2409 12.1899H13.7109V13.7099H15.2409V12.1899Z" fill="#000001"/>
<path d="M13.7095 13.71H12.1895V15.24H13.7095V13.71Z" fill="#000001"/>
<path d="M13.7095 10.6699H1.51953V12.1899H13.7095V10.6699Z" fill="#000001"/>
<path d="M10.6706 22.8599H9.14062V24.3799H10.6706V22.8599Z" fill="#000001"/>
<path d="M12.1891 15.2402H7.61914V16.7602H12.1891V15.2402Z" fill="#000001"/>
<path d="M9.13914 24.3799H7.61914V25.8999H9.13914V24.3799Z" fill="#000001"/>
<path d="M9.14031 21.3301H4.57031V22.8601H9.14031V21.3301Z" fill="#000001"/>
<path d="M7.62031 16.7598H4.57031V18.2798H7.62031V16.7598Z" fill="#000001"/>
<path d="M7.62078 25.8999H3.05078V27.4299H7.62078V25.8999Z" fill="#000001"/>
<path d="M4.57078 18.2798H3.05078V21.3298H4.57078V18.2798Z" fill="#000001"/>
<path d="M3.04953 27.4302H1.51953V28.9502H3.04953V27.4302Z" fill="#000001"/>
<path d="M1.52 28.9502H0V30.4702H1.52V28.9502Z" fill="#000001"/>
</svg>
