<svg width="32" height="32" viewBox="0 0 32 32" fill="none" xmlns="http://www.w3.org/2000/svg">
<g clip-path="url(#clip0_227_15898)">
<path d="M31.2397 8.38013H29.7197V16.0001H31.2397V8.38013Z" fill="#000001"/>
<path d="M29.7199 16H28.1899V19.05H29.7199V16Z" fill="#000001"/>
<path d="M29.7199 5.33008H28.1899V8.38008H29.7199V5.33008Z" fill="#000001"/>
<path d="M28.1899 19.05H26.6699V20.57H28.1899V19.05Z" fill="#000001"/>
<path d="M28.1899 3.81006H26.6699V5.33006H28.1899V3.81006Z" fill="#000001"/>
<path d="M26.6696 20.5701H25.1396V22.1001H26.6696V20.5701Z" fill="#000001"/>
<path d="M26.6696 11.4299H25.1396V17.5199H26.6696V11.4299Z" fill="#000001"/>
<path d="M25.1396 22.1001H23.6196V23.6201H25.1396V22.1001Z" fill="#000001"/>
<path d="M25.1396 17.52H23.6196V19.05H25.1396V17.52Z" fill="#000001"/>
<path d="M26.6696 2.29004H23.6196V3.81004H26.6696V2.29004Z" fill="#000001"/>
<path d="M23.6196 23.6201H22.0996V25.1401H23.6196V23.6201Z" fill="#000001"/>
<path d="M23.6196 19.05H22.0996V20.57H23.6196V19.05Z" fill="#000001"/>
<path d="M25.1398 9.90991H20.5698V11.4299H25.1398V9.90991Z" fill="#000001"/>
<path d="M22.0998 25.1399H20.5698V26.6699H22.0998V25.1399Z" fill="#000001"/>
<path d="M20.5698 26.6699H19.0498V28.1899H20.5698V26.6699Z" fill="#000001"/>
<path d="M22.1 20.5701H16V22.1001H22.1V20.5701Z" fill="#000001"/>
<path d="M20.5698 11.4299H19.0498V12.9499H20.5698V11.4299Z" fill="#000001"/>
<path d="M19.0498 8.38006H22.0998V6.86006H23.6198V5.33006H22.0998V3.81006H19.0498V5.33006H17.5298V6.86006H19.0498V8.38006Z" fill="#000001"/>
<path d="M19.0498 28.1899H17.5298V29.7099H19.0498V28.1899Z" fill="#000001"/>
<path d="M19.0498 12.95H17.5298V14.48H19.0498V12.95Z" fill="#000001"/>
<path d="M17.53 14.48H16V16H17.53V14.48Z" fill="#000001"/>
<path d="M17.5299 29.71H8.37988V31.24H17.5299V29.71Z" fill="#000001"/>
<path d="M16 16H14.48V20.57H16V16Z" fill="#000001"/>
<path d="M23.6197 0.76001H12.9497V2.29001H23.6197V0.76001Z" fill="#000001"/>
<path d="M14.4797 22.1001H11.4297V23.6201H9.90967V26.6701H11.4297V28.1901H14.4797V26.6701H15.9997V23.6201H14.4797V22.1001Z" fill="#000001"/>
<path d="M12.9497 2.29004H9.90967V3.81004H12.9497V2.29004Z" fill="#000001"/>
<path d="M9.90988 12.9501H12.9499V11.4301H14.4799V8.38011H12.9499V6.86011H9.90988V8.38011H8.37988V11.4301H9.90988V12.9501Z" fill="#000001"/>
<path d="M5.33957 20.57H8.37957V19.05H9.90957V16H8.37957V14.48H5.33957V16H3.80957V19.05H5.33957V20.57Z" fill="#000001"/>
<path d="M9.90986 3.81006H6.85986V5.33006H9.90986V3.81006Z" fill="#000001"/>
<path d="M8.37986 28.1899H6.85986V29.7099H8.37986V28.1899Z" fill="#000001"/>
<path d="M6.85957 26.6699H3.80957V28.1899H6.85957V26.6699Z" fill="#000001"/>
<path d="M6.85984 5.33008H5.33984V6.86008H6.85984V5.33008Z" fill="#000001"/>
<path d="M5.33957 6.86011H3.80957V9.91011H5.33957V6.86011Z" fill="#000001"/>
<path d="M3.80955 23.6201H2.28955V26.6701H3.80955V23.6201Z" fill="#000001"/>
<path d="M3.80955 9.90991H2.28955V12.9499H3.80955V9.90991Z" fill="#000001"/>
<path d="M2.28977 12.95H0.759766V23.62H2.28977V12.95Z" fill="#000001"/>
</g>
<defs>
<clipPath id="clip0_227_15898">
<rect width="32" height="32" fill="white"/>
</clipPath>
</defs>
</svg>
