<svg width="32" height="32" viewBox="0 0 32 32" fill="none" xmlns="http://www.w3.org/2000/svg">
<g clip-path="url(#clip0_220_2652)">
<path d="M29.7052 20.5679H27.4258V25.1435H29.7052V20.5679Z" fill="#000001"/>
<path d="M27.4258 13.7124H29.7052V20.5684H31.9996V11.4321H29.7052V6.85645H27.4258V13.7124Z" fill="#000001"/>
<path d="M27.4272 25.144H25.1328V27.4394H27.4272V25.144Z" fill="#000001"/>
<path d="M27.4272 13.7124H25.1328V16.0077H27.4272V13.7124Z" fill="#000001"/>
<path d="M27.4272 4.57617H25.1328V6.8565H27.4272V4.57617Z" fill="#000001"/>
<path d="M25.1329 20.5679H22.8535V25.1435H25.1329V20.5679Z" fill="#000001"/>
<path d="M25.1329 11.4316H22.8535V13.712H25.1329V11.4316Z" fill="#000001"/>
<path d="M25.131 27.439H20.5723V29.7193H25.131V27.439Z" fill="#000001"/>
<path d="M22.8517 18.2876H20.5723V20.5679H22.8517V18.2876Z" fill="#000001"/>
<path d="M22.8517 9.15137H20.5723V11.4317H22.8517V9.15137Z" fill="#000001"/>
<path d="M25.131 2.28027H20.5723V4.57561H25.131V2.28027Z" fill="#000001"/>
<path d="M20.5738 16.0073H16V18.2877H20.5738V16.0073Z" fill="#000001"/>
<path d="M20.5737 4.57617H18.2793V9.15183H20.5737V4.57617Z" fill="#000001"/>
<path d="M15.9996 25.144H13.7202V29.7197H11.4258V32H20.5733V29.7197H15.9996V25.144Z" fill="#000001"/>
<path d="M18.2794 20.5679H16V25.1435H18.2794V20.5679Z" fill="#000001"/>
<path d="M16.002 18.2876H13.7227V20.5679H16.002V18.2876Z" fill="#000001"/>
<path d="M13.7202 9.15137H11.4258V13.712H13.7202V9.15137Z" fill="#000001"/>
<path d="M11.4273 27.439H6.85352V29.7193H11.4273V27.439Z" fill="#000001"/>
<path d="M11.4259 13.7124H9.14648V16.0077H11.4259V13.7124Z" fill="#000001"/>
<path d="M11.4259 6.85645H9.14648V9.15178H11.4259V6.85645Z" fill="#000001"/>
<path d="M6.85352 2.28033V4.57566H11.4273V6.85599H13.7217V2.28033H20.5748V0H11.4273V2.28033H6.85352Z" fill="#000001"/>
<path d="M9.1479 16.0073H6.85352V18.2877H9.1479V16.0073Z" fill="#000001"/>
<path d="M6.85165 25.144H4.57227V27.4394H6.85165V25.144Z" fill="#000001"/>
<path d="M6.85165 13.7124H4.57227V16.0077H6.85165V13.7124Z" fill="#000001"/>
<path d="M6.85165 4.57617H4.57227V6.8565H6.85165V4.57617Z" fill="#000001"/>
<path d="M4.57236 20.5679H2.29297V25.1435H4.57236V20.5679Z" fill="#000001"/>
<path d="M2.29438 13.7124H4.57377V6.85645H2.29438V11.4321H0V20.5684H2.29438V13.7124Z" fill="#000001"/>
</g>
<defs>
<clipPath id="clip0_220_2652">
<rect width="32" height="32" fill="white"/>
</clipPath>
</defs>
</svg>
