<svg width="32" height="32" viewBox="0 0 32 32" fill="none" xmlns="http://www.w3.org/2000/svg">
<path d="M17.5256 31.2401V29.7201H20.5656V28.1901H23.6156V26.6701H26.6656V25.1401H28.1856V23.6201H29.7156V8.38011H28.1856V6.86011H26.6656V8.38011H23.6156V9.91011H20.5656V11.4301H17.5256V12.9501H14.4756V14.4801H16.0006V29.7201H14.4806V31.2401H17.5256ZM23.6156 12.9501H26.6656V14.4801H23.6156V12.9501ZM19.0456 22.1001H22.1006V25.1401H19.0506L19.0456 22.1001Z" fill="#000001"/>
<path d="M26.6652 5.34009H23.6152V6.86009H26.6652V5.34009Z" fill="#000001"/>
<path d="M23.6154 3.81006H20.5654V5.34006H23.6154V3.81006Z" fill="#000001"/>
<path d="M20.5654 2.29004H17.5254V3.81004H20.5654V2.29004Z" fill="#000001"/>
<path d="M17.5256 6.86011H14.4756V9.91011H17.5256V6.86011Z" fill="#000001"/>
<path d="M17.5256 0.76001H14.4756V2.29001H17.5256V0.76001Z" fill="#000001"/>
<path d="M14.4748 28.1899H11.4248V29.7199H14.4748V28.1899Z" fill="#000001"/>
<path d="M14.4748 11.4299H11.4248V12.9499H14.4748V11.4299Z" fill="#000001"/>
<path d="M14.4748 2.29004H11.4248V3.81004H14.4748V2.29004Z" fill="#000001"/>
<path d="M14.4748 22.1001H11.4248V25.1401H14.4748V22.1001Z" fill="#000001"/>
<path d="M14.4748 16H11.4248V19.05H14.4748V16Z" fill="#000001"/>
<path d="M11.425 26.6699H8.375V28.1899H11.425V26.6699Z" fill="#000001"/>
<path d="M11.425 9.90991H8.375V11.4299H11.425V9.90991Z" fill="#000001"/>
<path d="M11.425 3.81006H8.375V5.34006H11.425V3.81006Z" fill="#000001"/>
<path d="M8.37496 25.1399H5.33496V26.6699H8.37496V25.1399Z" fill="#000001"/>
<path d="M8.37496 8.38013H5.33496V9.91013H8.37496V8.38013Z" fill="#000001"/>
<path d="M8.37496 5.34009H5.33496V6.86009H8.37496V5.34009Z" fill="#000001"/>
<path d="M8.37496 19.05H5.33496V22.1H8.37496V19.05Z" fill="#000001"/>
<path d="M8.37496 12.95H5.33496V16H8.37496V12.95Z" fill="#000001"/>
<path d="M5.33469 23.6201H3.80469V25.1401H5.33469V23.6201Z" fill="#000001"/>
<path d="M5.33469 6.86011H3.80469V8.38011H5.33469V6.86011Z" fill="#000001"/>
<path d="M3.80516 8.38013H2.28516V23.6201H3.80516V8.38013Z" fill="#000001"/>
</svg>
