<svg width="32" height="32" viewBox="0 0 32 32" fill="none" xmlns="http://www.w3.org/2000/svg">
<g clip-path="url(#clip0_220_2603)">
<path d="M27.4302 15.2399V12.1899H25.9102V19.8099H27.4302V16.7599H32.0002V15.2399H27.4302Z" fill="#000001"/>
<path d="M25.9109 19.8101H24.3809V22.8601H25.9109V19.8101Z" fill="#000001"/>
<path d="M25.9109 9.14014H24.3809V12.1901H25.9109V9.14014Z" fill="#000001"/>
<path d="M24.3794 22.8599H22.8594V24.3799H24.3794V22.8599Z" fill="#000001"/>
<path d="M24.3794 7.62012H22.8594V9.14012H24.3794V7.62012Z" fill="#000001"/>
<path d="M22.8605 24.3799H19.8105V25.9099H22.8605V24.3799Z" fill="#000001"/>
<path d="M21.3406 10.6701H18.2906V9.14014H13.7206V10.6701H10.6706V13.7101H9.14062V18.2901H10.6706V21.3301H13.7206V22.8601H18.2906V21.3301H21.3406V18.2901H22.8606V13.7101H21.3406V10.6701ZM16.7606 13.7101H18.2906V15.2401H16.7606V13.7101ZM13.7206 13.7101H15.2406V15.2401H13.7206V13.7101ZM19.8106 18.2901H18.2906V19.8101H13.7206V18.2901H12.1906V16.7601H13.7206V18.2901H18.2906V16.7601H19.8106V18.2901Z" fill="#000001"/>
<path d="M22.8605 6.1001H19.8105V7.6201H22.8605V6.1001Z" fill="#000001"/>
<path d="M12.1895 25.9102V27.4302H15.2395V32.0002H16.7595V27.4302H19.8095V25.9102H12.1895Z" fill="#000001"/>
<path d="M19.8095 6.1V4.57H16.7595V0H15.2395V4.57H12.1895V6.1H19.8095Z" fill="#000001"/>
<path d="M12.1906 24.3799H9.14062V25.9099H12.1906V24.3799Z" fill="#000001"/>
<path d="M12.1906 6.1001H9.14062V7.6201H12.1906V6.1001Z" fill="#000001"/>
<path d="M9.13914 22.8599H7.61914V24.3799H9.13914V22.8599Z" fill="#000001"/>
<path d="M9.13914 7.62012H7.61914V9.14012H9.13914V7.62012Z" fill="#000001"/>
<path d="M7.61961 19.8101H6.09961V22.8601H7.61961V19.8101Z" fill="#000001"/>
<path d="M7.61961 9.14014H6.09961V12.1901H7.61961V9.14014Z" fill="#000001"/>
<path d="M6.1 12.1899H4.57V15.2399H0V16.7599H4.57V19.8099H6.1V12.1899Z" fill="#000001"/>
</g>
<defs>
<clipPath id="clip0_220_2603">
<rect width="32" height="32" fill="white"/>
</clipPath>
</defs>
</svg>
