<svg width="31" height="32" viewBox="0 0 31 32" fill="none" xmlns="http://www.w3.org/2000/svg">
<path d="M1.53 9.1398H28.95V30.4798H30.48V4.5698H28.95V3.0498H24.38V6.0998H22.86V3.0498H7.62V6.0998H6.1V3.0498H1.53V4.5698H0V30.4798H1.53V9.1398Z" fill="#000001"/>
<path d="M28.9493 30.48H1.5293V32H28.9493V30.48Z" fill="#000001"/>
<path d="M24.3794 0H22.8594V3.05H24.3794V0Z" fill="#000001"/>
<path d="M16.7598 15.2402V21.3302H21.3298V24.3802H16.7598V25.9002H22.8598V19.8102H18.2898V16.7602H22.8598V15.2402H16.7598Z" fill="#000001"/>
<path d="M12.1891 15.2402H10.6691V16.7602H7.61914V18.2902H10.6691V24.3802H7.61914V25.9002H15.2391V24.3802H12.1891V15.2402Z" fill="#000001"/>
<path d="M7.61961 0H6.09961V3.05H7.61961V0Z" fill="#000001"/>
</svg>
