<svg width="32" height="32" viewBox="0 0 32 32" fill="none" xmlns="http://www.w3.org/2000/svg">
<g clip-path="url(#clip0_221_15700)">
<rect x="9.33398" width="1.33333" height="1.33333" fill="#000001"/>
<rect x="10.666" width="1.33333" height="1.33333" fill="#000001"/>
<rect x="12" width="1.33333" height="1.33333" fill="#000001"/>
<rect x="13.334" width="1.33333" height="1.33333" fill="#000001"/>
<rect x="14.666" width="1.33333" height="1.33333" fill="#000001"/>
<rect x="16" width="1.33333" height="1.33333" fill="#000001"/>
<rect x="17.334" width="1.33333" height="1.33333" fill="#000001"/>
<rect x="18.666" width="1.33333" height="1.33333" fill="#000001"/>
<rect x="20" width="1.33333" height="1.33333" fill="#000001"/>
<rect x="21.334" width="1.33333" height="1.33333" fill="#000001"/>
<rect x="6.66602" y="1.3335" width="1.33333" height="1.33333" fill="#000001"/>
<rect x="8" y="1.3335" width="1.33333" height="1.33333" fill="#000001"/>
<rect x="9.33398" y="1.3335" width="1.33333" height="1.33333" fill="#000001"/>
<rect x="10.666" y="1.3335" width="1.33333" height="1.33333" fill="#000001"/>
<rect x="12" y="1.3335" width="1.33333" height="1.33333" fill="#000001"/>
<rect x="13.334" y="1.3335" width="1.33333" height="1.33333" fill="#000001"/>
<rect x="14.666" y="1.3335" width="1.33333" height="1.33333" fill="#000001"/>
<rect x="16" y="1.3335" width="1.33333" height="1.33333" fill="#000001"/>
<rect x="17.334" y="1.3335" width="1.33333" height="1.33333" fill="#000001"/>
<rect x="18.666" y="1.3335" width="1.33333" height="1.33333" fill="#000001"/>
<rect x="20" y="1.3335" width="1.33333" height="1.33333" fill="#000001"/>
<rect x="21.334" y="1.3335" width="1.33333" height="1.33333" fill="#000001"/>
<rect x="22.666" y="1.3335" width="1.33333" height="1.33333" fill="#000001"/>
<rect x="24" y="1.3335" width="1.33333" height="1.33333" fill="#000001"/>
<rect x="5.33398" y="2.6665" width="1.33333" height="1.33333" fill="#000001"/>
<rect x="6.66602" y="2.6665" width="1.33333" height="1.33333" fill="#000001"/>
<rect x="8" y="2.6665" width="1.33333" height="1.33333" fill="#000001"/>
<rect x="9.33398" y="2.6665" width="1.33333" height="1.33333" fill="#000001"/>
<rect x="10.666" y="2.6665" width="1.33333" height="1.33333" fill="#000001"/>
<rect x="20" y="2.6665" width="1.33333" height="1.33333" fill="#000001"/>
<rect x="21.334" y="2.6665" width="1.33333" height="1.33333" fill="#000001"/>
<rect x="22.666" y="2.6665" width="1.33333" height="1.33333" fill="#000001"/>
<rect x="24" y="2.6665" width="1.33333" height="1.33333" fill="#000001"/>
<rect x="25.334" y="2.6665" width="1.33333" height="1.33333" fill="#000001"/>
<rect x="4" y="4" width="1.33333" height="1.33333" fill="#000001"/>
<rect x="5.33398" y="4" width="1.33333" height="1.33333" fill="#000001"/>
<rect x="6.66602" y="4" width="1.33333" height="1.33333" fill="#000001"/>
<rect x="8" y="4" width="1.33333" height="1.33333" fill="#000001"/>
<rect x="22.666" y="4" width="1.33333" height="1.33333" fill="#000001"/>
<rect x="24" y="4" width="1.33333" height="1.33333" fill="#000001"/>
<rect x="25.334" y="4" width="1.33333" height="1.33333" fill="#000001"/>
<rect x="26.666" y="4" width="1.33333" height="1.33333" fill="#000001"/>
<rect x="2.66602" y="5.3335" width="1.33333" height="1.33333" fill="#000001"/>
<rect x="4" y="5.3335" width="1.33333" height="1.33333" fill="#000001"/>
<rect x="5.33398" y="5.3335" width="1.33333" height="1.33333" fill="#000001"/>
<rect x="18.666" y="5.3335" width="1.33333" height="1.33333" fill="#000001"/>
<rect x="20" y="5.3335" width="1.33333" height="1.33333" fill="#000001"/>
<rect x="25.334" y="5.3335" width="1.33333" height="1.33333" fill="#000001"/>
<rect x="26.666" y="5.3335" width="1.33333" height="1.33333" fill="#000001"/>
<rect x="28" y="5.3335" width="1.33333" height="1.33333" fill="#000001"/>
<rect x="2.66602" y="6.6665" width="1.33333" height="1.33333" fill="#000001"/>
<rect x="4" y="6.6665" width="1.33333" height="1.33333" fill="#000001"/>
<rect x="18.666" y="6.6665" width="1.33333" height="1.33333" fill="#000001"/>
<rect x="20" y="6.6665" width="1.33333" height="1.33333" fill="#000001"/>
<rect x="21.334" y="6.6665" width="1.33333" height="1.33333" fill="#000001"/>
<rect x="25.334" y="6.6665" width="1.33333" height="1.33333" fill="#000001"/>
<rect x="26.666" y="6.6665" width="1.33333" height="1.33333" fill="#000001"/>
<rect x="28" y="6.6665" width="1.33333" height="1.33333" fill="#000001"/>
<rect x="1.33398" y="8" width="1.33333" height="1.33333" fill="#000001"/>
<rect x="2.66602" y="8" width="1.33333" height="1.33333" fill="#000001"/>
<rect x="4" y="8" width="1.33333" height="1.33333" fill="#000001"/>
<rect x="20" y="8" width="1.33333" height="1.33333" fill="#000001"/>
<rect x="21.334" y="8" width="1.33333" height="1.33333" fill="#000001"/>
<rect x="22.666" y="8" width="1.33333" height="1.33333" fill="#000001"/>
<rect x="26.666" y="8" width="1.33333" height="1.33333" fill="#000001"/>
<rect x="28" y="8" width="1.33333" height="1.33333" fill="#000001"/>
<rect x="29.334" y="8" width="1.33333" height="1.33333" fill="#000001"/>
<rect x="1.33398" y="9.3335" width="1.33333" height="1.33333" fill="#000001"/>
<rect x="2.66602" y="9.3335" width="1.33333" height="1.33333" fill="#000001"/>
<rect x="21.334" y="9.3335" width="1.33333" height="1.33333" fill="#000001"/>
<rect x="22.666" y="9.3335" width="1.33333" height="1.33333" fill="#000001"/>
<rect x="24" y="9.3335" width="1.33333" height="1.33333" fill="#000001"/>
<rect x="28" y="9.3335" width="1.33333" height="1.33333" fill="#000001"/>
<rect x="29.334" y="9.3335" width="1.33333" height="1.33333" fill="#000001"/>
<rect x="1.33398" y="10.6665" width="1.33333" height="1.33333" fill="#000001"/>
<rect x="2.66602" y="10.6665" width="1.33333" height="1.33333" fill="#000001"/>
<rect x="22.666" y="10.6665" width="1.33333" height="1.33333" fill="#000001"/>
<rect x="24" y="10.6665" width="1.33333" height="1.33333" fill="#000001"/>
<rect x="28" y="10.6665" width="1.33333" height="1.33333" fill="#000001"/>
<rect x="29.334" y="10.6665" width="1.33333" height="1.33333" fill="#000001"/>
<rect y="12" width="1.33333" height="1.33333" fill="#000001"/>
<rect x="1.33398" y="12" width="1.33333" height="1.33333" fill="#000001"/>
<rect x="2.66602" y="12" width="1.33333" height="1.33333" fill="#000001"/>
<rect x="22.666" y="12" width="1.33333" height="1.33333" fill="#000001"/>
<rect x="24" y="12" width="1.33333" height="1.33333" fill="#000001"/>
<rect x="28" y="12" width="1.33333" height="1.33333" fill="#000001"/>
<rect x="29.334" y="12" width="1.33333" height="1.33333" fill="#000001"/>
<rect x="30.666" y="12" width="1.33333" height="1.33333" fill="#000001"/>
<rect y="13.3335" width="1.33333" height="1.33333" fill="#000001"/>
<rect x="1.33398" y="13.3335" width="1.33333" height="1.33333" fill="#000001"/>
<rect x="28" y="13.3335" width="1.33333" height="1.33333" fill="#000001"/>
<rect x="29.334" y="13.3335" width="1.33333" height="1.33333" fill="#000001"/>
<rect x="30.666" y="13.3335" width="1.33333" height="1.33333" fill="#000001"/>
<rect y="14.6665" width="1.33333" height="1.33333" fill="#000001"/>
<rect x="1.33398" y="14.6665" width="1.33333" height="1.33333" fill="#000001"/>
<rect x="28" y="14.6665" width="1.33333" height="1.33333" fill="#000001"/>
<rect x="29.334" y="14.6665" width="1.33333" height="1.33333" fill="#000001"/>
<rect x="30.666" y="14.6665" width="1.33333" height="1.33333" fill="#000001"/>
<rect y="16" width="1.33333" height="1.33333" fill="#000001"/>
<rect x="1.33398" y="16" width="1.33333" height="1.33333" fill="#000001"/>
<rect x="2.66602" y="16" width="1.33333" height="1.33333" fill="#000001"/>
<rect x="4" y="16" width="1.33333" height="1.33333" fill="#000001"/>
<rect x="5.33398" y="16" width="1.33333" height="1.33333" fill="#000001"/>
<rect x="6.66602" y="16" width="1.33333" height="1.33333" fill="#000001"/>
<rect x="8" y="16" width="1.33333" height="1.33333" fill="#000001"/>
<rect x="9.33398" y="16" width="1.33333" height="1.33333" fill="#000001"/>
<rect x="10.666" y="16" width="1.33333" height="1.33333" fill="#000001"/>
<rect x="12" y="16" width="1.33333" height="1.33333" fill="#000001"/>
<rect x="13.334" y="16" width="1.33333" height="1.33333" fill="#000001"/>
<rect x="14.666" y="16" width="1.33333" height="1.33333" fill="#000001"/>
<rect x="16" y="16" width="1.33333" height="1.33333" fill="#000001"/>
<rect x="17.334" y="16" width="1.33333" height="1.33333" fill="#000001"/>
<rect x="18.666" y="16" width="1.33333" height="1.33333" fill="#000001"/>
<rect x="20" y="16" width="1.33333" height="1.33333" fill="#000001"/>
<rect x="21.334" y="16" width="1.33333" height="1.33333" fill="#000001"/>
<rect x="22.666" y="16" width="1.33333" height="1.33333" fill="#000001"/>
<rect x="24" y="16" width="1.33333" height="1.33333" fill="#000001"/>
<rect x="25.334" y="16" width="1.33333" height="1.33333" fill="#000001"/>
<rect x="26.666" y="16" width="1.33333" height="1.33333" fill="#000001"/>
<rect x="28" y="16" width="1.33333" height="1.33333" fill="#000001"/>
<rect x="29.334" y="16" width="1.33333" height="1.33333" fill="#000001"/>
<rect x="30.666" y="16" width="1.33333" height="1.33333" fill="#000001"/>
<rect x="1.33398" y="17.3335" width="1.33333" height="1.33333" fill="#000001"/>
<rect x="2.66602" y="17.3335" width="1.33333" height="1.33333" fill="#000001"/>
<rect x="4" y="17.3335" width="1.33333" height="1.33333" fill="#000001"/>
<rect x="5.33398" y="17.3335" width="1.33333" height="1.33333" fill="#000001"/>
<rect x="6.66602" y="17.3335" width="1.33333" height="1.33333" fill="#000001"/>
<rect x="8" y="17.3335" width="1.33333" height="1.33333" fill="#000001"/>
<rect x="9.33398" y="17.3335" width="1.33333" height="1.33333" fill="#000001"/>
<rect x="10.666" y="17.3335" width="1.33333" height="1.33333" fill="#000001"/>
<rect x="12" y="17.3335" width="1.33333" height="1.33333" fill="#000001"/>
<rect x="13.334" y="17.3335" width="1.33333" height="1.33333" fill="#000001"/>
<rect x="14.666" y="17.3335" width="1.33333" height="1.33333" fill="#000001"/>
<rect x="16" y="17.3335" width="1.33333" height="1.33333" fill="#000001"/>
<rect x="17.334" y="17.3335" width="1.33333" height="1.33333" fill="#000001"/>
<rect x="18.666" y="17.3335" width="1.33333" height="1.33333" fill="#000001"/>
<rect x="20" y="17.3335" width="1.33333" height="1.33333" fill="#000001"/>
<rect x="21.334" y="17.3335" width="1.33333" height="1.33333" fill="#000001"/>
<rect x="22.666" y="17.3335" width="1.33333" height="1.33333" fill="#000001"/>
<rect x="24" y="17.3335" width="1.33333" height="1.33333" fill="#000001"/>
<rect x="25.334" y="17.3335" width="1.33333" height="1.33333" fill="#000001"/>
<rect x="26.666" y="17.3335" width="1.33333" height="1.33333" fill="#000001"/>
<rect x="28" y="17.3335" width="1.33333" height="1.33333" fill="#000001"/>
<rect x="29.334" y="17.3335" width="1.33333" height="1.33333" fill="#000001"/>
<rect x="10.666" y="18.6665" width="1.33333" height="1.33333" fill="#000001"/>
<rect x="12" y="18.6665" width="1.33333" height="1.33333" fill="#000001"/>
<rect x="18.666" y="18.6665" width="1.33333" height="1.33333" fill="#000001"/>
<rect x="20" y="18.6665" width="1.33333" height="1.33333" fill="#000001"/>
<rect x="10.666" y="20" width="1.33333" height="1.33333" fill="#000001"/>
<rect x="12" y="20" width="1.33333" height="1.33333" fill="#000001"/>
<rect x="18.666" y="20" width="1.33333" height="1.33333" fill="#000001"/>
<rect x="20" y="20" width="1.33333" height="1.33333" fill="#000001"/>
<rect x="10.666" y="21.3335" width="1.33333" height="1.33333" fill="#000001"/>
<rect x="12" y="21.3335" width="1.33333" height="1.33333" fill="#000001"/>
<rect x="18.666" y="21.3335" width="1.33333" height="1.33333" fill="#000001"/>
<rect x="20" y="21.3335" width="1.33333" height="1.33333" fill="#000001"/>
<rect x="10.666" y="22.6665" width="1.33333" height="1.33333" fill="#000001"/>
<rect x="12" y="22.6665" width="1.33333" height="1.33333" fill="#000001"/>
<rect x="13.334" y="22.6665" width="1.33333" height="1.33333" fill="#000001"/>
<rect x="18.666" y="22.6665" width="1.33333" height="1.33333" fill="#000001"/>
<rect x="20" y="22.6665" width="1.33333" height="1.33333" fill="#000001"/>
<rect x="10.666" y="24" width="1.33333" height="1.33333" fill="#000001"/>
<rect x="12" y="24" width="1.33333" height="1.33333" fill="#000001"/>
<rect x="13.334" y="24" width="1.33333" height="1.33333" fill="#000001"/>
<rect x="18.666" y="24" width="1.33333" height="1.33333" fill="#000001"/>
<rect x="20" y="24" width="1.33333" height="1.33333" fill="#000001"/>
<rect x="21.334" y="24" width="1.33333" height="1.33333" fill="#000001"/>
<rect x="12" y="25.3335" width="1.33333" height="1.33333" fill="#000001"/>
<rect x="13.334" y="25.3335" width="1.33333" height="1.33333" fill="#000001"/>
<rect x="20" y="25.3335" width="1.33333" height="1.33333" fill="#000001"/>
<rect x="21.334" y="25.3335" width="1.33333" height="1.33333" fill="#000001"/>
<rect x="12" y="26.6665" width="1.33333" height="1.33333" fill="#000001"/>
<rect x="13.334" y="26.6665" width="1.33333" height="1.33333" fill="#000001"/>
<rect x="14.666" y="26.6665" width="1.33333" height="1.33333" fill="#000001"/>
<rect x="20" y="26.6665" width="1.33333" height="1.33333" fill="#000001"/>
<rect x="21.334" y="26.6665" width="1.33333" height="1.33333" fill="#000001"/>
<rect x="13.334" y="28" width="1.33333" height="1.33333" fill="#000001"/>
<rect x="14.666" y="28" width="1.33333" height="1.33333" fill="#000001"/>
<rect x="20" y="28" width="1.33333" height="1.33333" fill="#000001"/>
<rect x="21.334" y="28" width="1.33333" height="1.33333" fill="#000001"/>
<rect x="13.334" y="29.3335" width="1.33333" height="1.33333" fill="#000001"/>
<rect x="14.666" y="29.3335" width="1.33333" height="1.33333" fill="#000001"/>
<rect x="16" y="29.3335" width="1.33333" height="1.33333" fill="#000001"/>
<rect x="17.334" y="29.3335" width="1.33333" height="1.33333" fill="#000001"/>
<rect x="18.666" y="29.3335" width="1.33333" height="1.33333" fill="#000001"/>
<rect x="20" y="29.3335" width="1.33333" height="1.33333" fill="#000001"/>
<rect x="21.334" y="29.3335" width="1.33333" height="1.33333" fill="#000001"/>
<rect x="14.666" y="30.6665" width="1.33333" height="1.33333" fill="#000001"/>
<rect x="16" y="30.6665" width="1.33333" height="1.33333" fill="#000001"/>
<rect x="17.334" y="30.6665" width="1.33333" height="1.33333" fill="#000001"/>
<rect x="18.666" y="30.6665" width="1.33333" height="1.33333" fill="#000001"/>
<rect x="20" y="30.6665" width="1.33333" height="1.33333" fill="#000001"/>
</g>
<defs>
<clipPath id="clip0_221_15700">
<rect width="32" height="32" fill="white"/>
</clipPath>
</defs>
</svg>
