<svg width="32" height="32" viewBox="0 0 32 32" fill="none" xmlns="http://www.w3.org/2000/svg">
<g clip-path="url(#clip0_221_15468)">
<path d="M30.4792 24.3802H31.9992V15.2402H30.4792V16.7702H28.9492V18.2902H30.4792V24.3802Z" fill="#000001"/>
<path d="M30.4792 24.3799H28.9492V25.9099H30.4792V24.3799Z" fill="#000001"/>
<path d="M28.9497 25.9102H27.4297V27.4302H28.9497V25.9102Z" fill="#000001"/>
<path d="M28.9497 21.3398H27.4297V22.8598H28.9497V21.3398Z" fill="#000001"/>
<path d="M27.4309 22.8599H24.3809V24.3799H27.4309V22.8599Z" fill="#000001"/>
<path d="M27.4309 27.4302H24.3809V28.9602H27.4309V27.4302Z" fill="#000001"/>
<path d="M28.9494 18.29H22.8594V19.81H28.9494V18.29Z" fill="#000001"/>
<path d="M27.4294 4.57H28.9494V3.05H30.4794V1.53H28.9494V0H27.4294V1.53H25.9094V0H24.3794V1.53H22.8594V3.05H24.3794V4.57H25.9094V6.1H27.4294V4.57Z" fill="#000001"/>
<path d="M24.3801 24.3799H21.3301V25.9099H24.3801V24.3799Z" fill="#000001"/>
<path d="M24.3791 28.96H18.2891V30.48H24.3791V28.96Z" fill="#000001"/>
<path d="M22.8605 19.8101H19.8105V21.3401H22.8605V19.8101Z" fill="#000001"/>
<path d="M13.7206 19.8102V21.3402H9.14062V22.8602H13.7206V32.0002H15.2406V27.4302H16.7606V28.9602H18.2906V27.4302H21.3306V25.9102H16.7606V24.3802H15.2406V21.3402H16.7606V13.7202H15.2406V19.8102H13.7206Z" fill="#000001"/>
<path d="M19.8091 21.3398H18.2891V22.8598H19.8091V21.3398Z" fill="#000001"/>
<path d="M22.8598 16.7701V15.2401H24.3798V13.7201H25.9098V12.1901H27.4298V9.15012H25.9098V7.62012H22.8598V9.15012H21.3298V7.62012H18.2898V9.15012H16.7598V12.1901H18.2898V13.7201H19.8098V15.2401H21.3298V16.7701H22.8598Z" fill="#000001"/>
<path d="M18.2898 22.8599H16.7598V24.3799H18.2898V22.8599Z" fill="#000001"/>
<path d="M15.2407 12.1899H13.7207V13.7199H15.2407V12.1899Z" fill="#000001"/>
<path d="M13.7195 16.77H12.1895V19.81H13.7195V16.77Z" fill="#000001"/>
<path d="M13.7195 10.6699H12.1895V12.1899H13.7195V10.6699Z" fill="#000001"/>
<path d="M12.1899 15.2402H10.6699V16.7702H12.1899V15.2402Z" fill="#000001"/>
<path d="M10.6691 13.7202H7.61914V15.2402H10.6691V13.7202Z" fill="#000001"/>
<path d="M12.1906 9.1499H9.14062V10.6699H12.1906V9.1499Z" fill="#000001"/>
<path d="M9.13961 19.8101H6.09961V21.3401H9.13961V19.8101Z" fill="#000001"/>
<path d="M7.61961 12.1899H6.09961V13.7199H7.61961V12.1899Z" fill="#000001"/>
<path d="M6.10031 18.29H4.57031V19.81H6.10031V18.29Z" fill="#000001"/>
<path d="M6.10031 10.6699H4.57031V12.1899H6.10031V10.6699Z" fill="#000001"/>
<path d="M9.14031 7.62012H4.57031V9.15012H9.14031V7.62012Z" fill="#000001"/>
<path d="M4.57078 15.2402H3.05078V18.2902H4.57078V15.2402Z" fill="#000001"/>
<path d="M4.57078 6.1001H3.05078V7.6201H4.57078V6.1001Z" fill="#000001"/>
<path d="M3.04953 12.1899H1.51953V15.2399H3.04953V12.1899Z" fill="#000001"/>
<path d="M1.52 6.09982H3.05V4.56982H0V12.1898H1.52V6.09982Z" fill="#000001"/>
</g>
<defs>
<clipPath id="clip0_221_15468">
<rect width="32" height="32" fill="white"/>
</clipPath>
</defs>
</svg>
