<svg width="32" height="32" viewBox="0 0 32 32" fill="none" xmlns="http://www.w3.org/2000/svg">
<rect x="18.0508" width="0.820513" height="1.06667" fill="#020400"/>
<rect x="18.8711" width="0.820513" height="1.06667" fill="#020400"/>
<rect x="19.6914" width="0.820513" height="1.06667" fill="#020400"/>
<rect x="20.5137" width="0.820513" height="1.06667" fill="#020400"/>
<rect x="16.4102" y="1.06641" width="0.820513" height="1.06667" fill="#020400"/>
<rect x="17.2305" y="1.06641" width="0.820513" height="1.06667" fill="#020400"/>
<rect x="18.0508" y="1.06641" width="0.820513" height="1.06667" fill="#020400"/>
<rect x="18.8711" y="1.06641" width="0.820513" height="1.06667" fill="#020400"/>
<rect x="19.6914" y="1.06641" width="0.820513" height="1.06667" fill="#020400"/>
<rect x="20.5137" y="1.06641" width="0.820513" height="1.06667" fill="#020400"/>
<rect x="21.334" y="1.06641" width="0.820513" height="1.06667" fill="#020400"/>
<rect x="22.1543" y="1.06641" width="0.820513" height="1.06667" fill="#010300"/>
<rect x="15.5898" y="2.13281" width="0.820513" height="1.06667" fill="#020400"/>
<rect x="16.4102" y="2.13281" width="0.820513" height="1.06667" fill="#020400"/>
<rect x="17.2305" y="2.13281" width="0.820513" height="1.06667" fill="#020400"/>
<rect x="18.0508" y="2.13281" width="0.820513" height="1.06667" fill="black"/>
<rect x="20.5137" y="2.13281" width="0.820513" height="1.06667" fill="#020400"/>
<rect x="21.334" y="2.13281" width="0.820513" height="1.06667" fill="#020400"/>
<rect x="22.1543" y="2.13281" width="0.820513" height="1.06667" fill="#020400"/>
<rect x="22.9746" y="2.13281" width="0.820513" height="1.06667" fill="#000500"/>
<rect x="15.5898" y="3.19922" width="0.820513" height="1.06667" fill="#020400"/>
<rect x="16.4102" y="3.19922" width="0.820513" height="1.06667" fill="#020400"/>
<rect x="22.1543" y="3.19922" width="0.820513" height="1.06667" fill="#020400"/>
<rect x="22.9746" y="3.19922" width="0.820513" height="1.06667" fill="#020400"/>
<rect x="14.7695" y="4.26562" width="0.820513" height="1.06667" fill="#020400"/>
<rect x="15.5898" y="4.26562" width="0.820513" height="1.06667" fill="#020400"/>
<rect x="16.4102" y="4.26562" width="0.820513" height="1.06667" fill="#020400"/>
<rect x="22.1543" y="4.26562" width="0.820513" height="1.06667" fill="#020400"/>
<rect x="22.9746" y="4.26562" width="0.820513" height="1.06667" fill="#020400"/>
<rect x="23.7949" y="4.26562" width="0.820513" height="1.06667" fill="#020400"/>
<rect x="14.7695" y="5.33203" width="0.820513" height="1.06667" fill="#020400"/>
<rect x="15.5898" y="5.33203" width="0.820513" height="1.06667" fill="#020400"/>
<rect x="22.9746" y="5.33203" width="0.820513" height="1.06667" fill="#020400"/>
<rect x="23.7949" y="5.33203" width="0.820513" height="1.06667" fill="#020400"/>
<rect x="13.9492" y="6.39844" width="0.820513" height="1.06667" fill="#020400"/>
<rect x="14.7695" y="6.39844" width="0.820513" height="1.06667" fill="#020400"/>
<rect x="15.5898" y="6.39844" width="0.820513" height="1.06667" fill="#000300"/>
<rect x="22.9746" y="6.39844" width="0.820513" height="1.06667" fill="#020400"/>
<rect x="23.7949" y="6.39844" width="0.820513" height="1.06667" fill="#020400"/>
<rect x="24.6152" y="6.39844" width="0.820513" height="1.06667" fill="#020400"/>
<rect x="13.1289" y="7.46484" width="0.820513" height="1.06667" fill="black"/>
<rect x="13.9492" y="7.46484" width="0.820513" height="1.06667" fill="#020400"/>
<rect x="14.7695" y="7.46484" width="0.820513" height="1.06667" fill="#020400"/>
<rect x="18.8711" y="7.46484" width="0.820513" height="1.06667" fill="#020400"/>
<rect x="19.6914" y="7.46484" width="0.820513" height="1.06667" fill="#020400"/>
<rect x="23.7949" y="7.46484" width="0.820513" height="1.06667" fill="#020400"/>
<rect x="24.6152" y="7.46484" width="0.820513" height="1.06667" fill="#020400"/>
<rect x="13.1289" y="8.53516" width="0.820513" height="1.06667" fill="#020400"/>
<rect x="13.9492" y="8.53516" width="0.820513" height="1.06667" fill="#020400"/>
<rect x="14.7695" y="8.53516" width="0.820513" height="1.06667" fill="#020400"/>
<rect x="18.0508" y="8.53516" width="0.820513" height="1.06667" fill="#020400"/>
<rect x="18.8711" y="8.53516" width="0.820513" height="1.06667" fill="#020400"/>
<rect x="19.6914" y="8.53516" width="0.820513" height="1.06667" fill="#020400"/>
<rect x="20.5137" y="8.53516" width="0.820513" height="1.06667" fill="#020400"/>
<rect x="22.9746" y="8.53516" width="0.820513" height="1.06667" fill="#010300"/>
<rect x="23.7949" y="8.53516" width="0.820513" height="1.06667" fill="#020400"/>
<rect x="24.6152" y="8.53516" width="0.820513" height="1.06667" fill="#020400"/>
<rect x="25.4355" y="8.53516" width="0.820513" height="1.06667" fill="#020400"/>
<rect x="12.3086" y="9.60156" width="0.820513" height="1.06667" fill="#020400"/>
<rect x="13.1289" y="9.60156" width="0.820513" height="1.06667" fill="#020400"/>
<rect x="13.9492" y="9.60156" width="0.820513" height="1.06667" fill="#020400"/>
<rect x="14.7695" y="9.60156" width="0.820513" height="1.06667" fill="#020400"/>
<rect x="15.5898" y="9.60156" width="0.820513" height="1.06667" fill="#020400"/>
<rect x="17.2305" y="9.60156" width="0.820513" height="1.06667" fill="#020400"/>
<rect x="18.0508" y="9.60156" width="0.820513" height="1.06667" fill="#020400"/>
<rect x="18.8711" y="9.60156" width="0.820513" height="1.06667" fill="#020400"/>
<rect x="19.6914" y="9.60156" width="0.820513" height="1.06667" fill="#020400"/>
<rect x="20.5137" y="9.60156" width="0.820513" height="1.06667" fill="#020400"/>
<rect x="21.334" y="9.60156" width="0.820513" height="1.06667" fill="#020400"/>
<rect x="22.1543" y="9.60156" width="0.820513" height="1.06667" fill="#010200"/>
<rect x="22.9746" y="9.60156" width="0.820513" height="1.06667" fill="#020400"/>
<rect x="23.7949" y="9.60156" width="0.820513" height="1.06667" fill="#020400"/>
<rect x="24.6152" y="9.60156" width="0.820513" height="1.06667" fill="#020400"/>
<rect x="25.4355" y="9.60156" width="0.820513" height="1.06667" fill="#020400"/>
<rect x="26.2559" y="9.60156" width="0.820513" height="1.06667" fill="#000300"/>
<rect x="12.3086" y="10.668" width="0.820513" height="1.06667" fill="#020400"/>
<rect x="13.1289" y="10.668" width="0.820513" height="1.06667" fill="#020400"/>
<rect x="14.7695" y="10.668" width="0.820513" height="1.06667" fill="#000200"/>
<rect x="15.5898" y="10.668" width="0.820513" height="1.06667" fill="#020400"/>
<rect x="16.4102" y="10.668" width="0.820513" height="1.06667" fill="#020400"/>
<rect x="17.2305" y="10.668" width="0.820513" height="1.06667" fill="#020400"/>
<rect x="18.0508" y="10.668" width="0.820513" height="1.06667" fill="#020400"/>
<rect x="20.5137" y="10.668" width="0.820513" height="1.06667" fill="#020400"/>
<rect x="21.334" y="10.668" width="0.820513" height="1.06667" fill="#020400"/>
<rect x="22.1543" y="10.668" width="0.820513" height="1.06667" fill="#020400"/>
<rect x="22.9746" y="10.668" width="0.820513" height="1.06667" fill="#020400"/>
<rect x="23.7949" y="10.668" width="0.820513" height="1.06667" fill="black"/>
<rect x="25.4355" y="10.668" width="0.820513" height="1.06667" fill="#020400"/>
<rect x="26.2559" y="10.668" width="0.820513" height="1.06667" fill="#020400"/>
<rect x="9.02539" y="11.7344" width="0.820513" height="1.06667" fill="#020400"/>
<rect x="9.8457" y="11.7344" width="0.820513" height="1.06667" fill="#020400"/>
<rect x="11.4863" y="11.7344" width="0.820513" height="1.06667" fill="#020400"/>
<rect x="12.3086" y="11.7344" width="0.820513" height="1.06667" fill="#020400"/>
<rect x="13.1289" y="11.7344" width="0.820513" height="1.06667" fill="#020400"/>
<rect x="15.5898" y="11.7344" width="0.820513" height="1.06667" fill="#000200"/>
<rect x="16.4102" y="11.7344" width="0.820513" height="1.06667" fill="#020400"/>
<rect x="17.2305" y="11.7344" width="0.820513" height="1.06667" fill="#020400"/>
<rect x="21.334" y="11.7344" width="0.820513" height="1.06667" fill="#020400"/>
<rect x="22.1543" y="11.7344" width="0.820513" height="1.06667" fill="#020400"/>
<rect x="22.9746" y="11.7344" width="0.820513" height="1.06667" fill="black"/>
<rect x="25.4355" y="11.7344" width="0.820513" height="1.06667" fill="#020400"/>
<rect x="26.2559" y="11.7344" width="0.820513" height="1.06667" fill="#020400"/>
<rect x="27.0762" y="11.7344" width="0.820513" height="1.06667" fill="#020400"/>
<rect x="7.38477" y="12.8008" width="0.820513" height="1.06667" fill="#020400"/>
<rect x="8.20508" y="12.8008" width="0.820513" height="1.06667" fill="#020400"/>
<rect x="9.02539" y="12.8008" width="0.820513" height="1.06667" fill="#020400"/>
<rect x="9.8457" y="12.8008" width="0.820513" height="1.06667" fill="#020400"/>
<rect x="10.666" y="12.8008" width="0.820513" height="1.06667" fill="#020400"/>
<rect x="11.4863" y="12.8008" width="0.820513" height="1.06667" fill="#020400"/>
<rect x="12.3086" y="12.8008" width="0.820513" height="1.06667" fill="#020400"/>
<rect x="26.2559" y="12.8008" width="0.820513" height="1.06667" fill="#020400"/>
<rect x="27.0762" y="12.8008" width="0.820513" height="1.06667" fill="#020400"/>
<rect x="6.56445" y="13.8672" width="0.820513" height="1.06667" fill="#020400"/>
<rect x="7.38477" y="13.8672" width="0.820513" height="1.06667" fill="#020400"/>
<rect x="8.20508" y="13.8672" width="0.820513" height="1.06667" fill="#020400"/>
<rect x="9.02539" y="13.8672" width="0.820513" height="1.06667" fill="#000300"/>
<rect x="9.8457" y="13.8672" width="0.820513" height="1.06667" fill="#020400"/>
<rect x="10.666" y="13.8672" width="0.820513" height="1.06667" fill="#020400"/>
<rect x="11.4863" y="13.8672" width="0.820513" height="1.06667" fill="#020400"/>
<rect x="12.3086" y="13.8672" width="0.820513" height="1.06667" fill="black"/>
<rect x="26.2559" y="13.8672" width="0.820513" height="1.06667" fill="#010300"/>
<rect x="27.0762" y="13.8672" width="0.820513" height="1.06667" fill="#020400"/>
<rect x="27.8965" y="13.8672" width="0.820513" height="1.06667" fill="#020400"/>
<rect x="6.56445" y="14.9336" width="0.820513" height="1.06667" fill="#020400"/>
<rect x="7.38477" y="14.9336" width="0.820513" height="1.06667" fill="#020400"/>
<rect x="11.4863" y="14.9336" width="0.820513" height="1.06667" fill="#020400"/>
<rect x="12.3086" y="14.9336" width="0.820513" height="1.06667" fill="#020400"/>
<rect x="27.0762" y="14.9336" width="0.820513" height="1.06667" fill="#020400"/>
<rect x="27.8965" y="14.9336" width="0.820513" height="1.06667" fill="#020400"/>
<rect x="5.74414" y="16" width="0.820513" height="1.06667" fill="#020400"/>
<rect x="6.56445" y="16" width="0.820513" height="1.06667" fill="#020400"/>
<rect x="7.38477" y="16" width="0.820513" height="1.06667" fill="#020400"/>
<rect x="11.4863" y="16" width="0.820513" height="1.06667" fill="#020400"/>
<rect x="12.3086" y="16" width="0.820513" height="1.06667" fill="#020400"/>
<rect x="13.1289" y="16" width="0.820513" height="1.06667" fill="#020400"/>
<rect x="27.8965" y="16" width="0.820513" height="1.06667" fill="#020400"/>
<rect x="28.7188" y="16" width="0.820513" height="1.06667" fill="#020400"/>
<rect x="5.74414" y="17.0664" width="0.820513" height="1.06667" fill="#020400"/>
<rect x="6.56445" y="17.0664" width="0.820513" height="1.06667" fill="#020400"/>
<rect x="12.3086" y="17.0664" width="0.820513" height="1.06667" fill="#020400"/>
<rect x="13.1289" y="17.0664" width="0.820513" height="1.06667" fill="#020400"/>
<rect x="27.8965" y="17.0664" width="0.820513" height="1.06667" fill="#020400"/>
<rect x="28.7188" y="17.0664" width="0.820513" height="1.06667" fill="#020400"/>
<rect x="29.5391" y="17.0664" width="0.820513" height="1.06667" fill="#020400"/>
<rect x="4.92383" y="18.1328" width="0.820513" height="1.06667" fill="#020400"/>
<rect x="5.74414" y="18.1328" width="0.820513" height="1.06667" fill="#020400"/>
<rect x="6.56445" y="18.1328" width="0.820513" height="1.06667" fill="black"/>
<rect x="12.3086" y="18.1328" width="0.820513" height="1.06667" fill="#020400"/>
<rect x="13.1289" y="18.1328" width="0.820513" height="1.06667" fill="#020400"/>
<rect x="13.9492" y="18.1328" width="0.820513" height="1.06667" fill="#020400"/>
<rect x="28.7188" y="18.1328" width="0.820513" height="1.06667" fill="#020400"/>
<rect x="29.5391" y="18.1328" width="0.820513" height="1.06667" fill="#020400"/>
<rect x="4.92383" y="19.1992" width="0.820513" height="1.06667" fill="#020400"/>
<rect x="5.74414" y="19.1992" width="0.820513" height="1.06667" fill="#020400"/>
<rect x="13.1289" y="19.1992" width="0.820513" height="1.06667" fill="#020400"/>
<rect x="13.9492" y="19.1992" width="0.820513" height="1.06667" fill="#020400"/>
<rect x="28.7188" y="19.1992" width="0.820513" height="1.06667" fill="#020400"/>
<rect x="29.5391" y="19.1992" width="0.820513" height="1.06667" fill="#020400"/>
<rect x="30.3594" y="19.1992" width="0.820513" height="1.06667" fill="#020400"/>
<rect x="4.10352" y="20.2656" width="0.820513" height="1.06667" fill="#020400"/>
<rect x="4.92383" y="20.2656" width="0.820513" height="1.06667" fill="#020400"/>
<rect x="13.1289" y="20.2656" width="0.820513" height="1.06667" fill="black"/>
<rect x="13.9492" y="20.2656" width="0.820513" height="1.06667" fill="#020400"/>
<rect x="14.7695" y="20.2656" width="0.820513" height="1.06667" fill="#020400"/>
<rect x="29.5391" y="20.2656" width="0.820513" height="1.06667" fill="#020400"/>
<rect x="30.3594" y="20.2656" width="0.820513" height="1.06667" fill="#020400"/>
<rect x="3.28125" y="21.332" width="0.820513" height="1.06667" fill="#020400"/>
<rect x="4.10352" y="21.332" width="0.820513" height="1.06667" fill="#020400"/>
<rect x="4.92383" y="21.332" width="0.820513" height="1.06667" fill="#020400"/>
<rect x="9.02539" y="21.332" width="0.820513" height="1.06667" fill="#020400"/>
<rect x="13.9492" y="21.332" width="0.820513" height="1.06667" fill="#020400"/>
<rect x="14.7695" y="21.332" width="0.820513" height="1.06667" fill="#020400"/>
<rect x="15.5898" y="21.332" width="0.820513" height="1.06667" fill="#000200"/>
<rect x="29.5391" y="21.332" width="0.820513" height="1.06667" fill="black"/>
<rect x="30.3594" y="21.332" width="0.820513" height="1.06667" fill="#020400"/>
<rect x="31.1797" y="21.332" width="0.820513" height="1.06667" fill="#000200"/>
<rect x="3.28125" y="22.3984" width="0.820513" height="1.06667" fill="#020400"/>
<rect x="4.10352" y="22.3984" width="0.820513" height="1.06667" fill="#020400"/>
<rect x="4.92383" y="22.3984" width="0.820513" height="1.06667" fill="#020400"/>
<rect x="8.20508" y="22.3984" width="0.820513" height="1.06667" fill="#020400"/>
<rect x="9.02539" y="22.3984" width="0.820513" height="1.06667" fill="#020400"/>
<rect x="9.8457" y="22.3984" width="0.820513" height="1.06667" fill="#020400"/>
<rect x="13.9492" y="22.3984" width="0.820513" height="1.06667" fill="#020400"/>
<rect x="14.7695" y="22.3984" width="0.820513" height="1.06667" fill="#020400"/>
<rect x="15.5898" y="22.3984" width="0.820513" height="1.06667" fill="#020400"/>
<rect x="2.46094" y="23.4648" width="0.820513" height="1.06667" fill="#020400"/>
<rect x="3.28125" y="23.4648" width="0.820513" height="1.06667" fill="#020400"/>
<rect x="4.10352" y="23.4648" width="0.820513" height="1.06667" fill="#020400"/>
<rect x="4.92383" y="23.4648" width="0.820513" height="1.06667" fill="#020400"/>
<rect x="5.74414" y="23.4648" width="0.820513" height="1.06667" fill="#020400"/>
<rect x="7.38477" y="23.4648" width="0.820513" height="1.06667" fill="#020400"/>
<rect x="8.20508" y="23.4648" width="0.820513" height="1.06667" fill="#020400"/>
<rect x="9.02539" y="23.4648" width="0.820513" height="1.06667" fill="#020400"/>
<rect x="9.8457" y="23.4648" width="0.820513" height="1.06667" fill="#020400"/>
<rect x="10.666" y="23.4648" width="0.820513" height="1.06667" fill="#020400"/>
<rect x="13.1289" y="23.4648" width="0.820513" height="1.06667" fill="#020400"/>
<rect x="13.9492" y="23.4648" width="0.820513" height="1.06667" fill="#020400"/>
<rect x="14.7695" y="23.4648" width="0.820513" height="1.06667" fill="#020400"/>
<rect x="15.5898" y="23.4648" width="0.820513" height="1.06667" fill="#020400"/>
<rect x="16.4102" y="23.4648" width="0.820513" height="1.06667" fill="#020400"/>
<rect x="2.46094" y="24.5352" width="0.820513" height="1.06667" fill="#020400"/>
<rect x="3.28125" y="24.5352" width="0.820513" height="1.06667" fill="#020400"/>
<rect x="4.92383" y="24.5352" width="0.820513" height="1.06667" fill="#020400"/>
<rect x="5.74414" y="24.5352" width="0.820513" height="1.06667" fill="#020400"/>
<rect x="6.56445" y="24.5352" width="0.820513" height="1.06667" fill="#020400"/>
<rect x="7.38477" y="24.5352" width="0.820513" height="1.06667" fill="#020400"/>
<rect x="8.20508" y="24.5352" width="0.820513" height="1.06667" fill="#020400"/>
<rect x="9.8457" y="24.5352" width="0.820513" height="1.06667" fill="#000300"/>
<rect x="10.666" y="24.5352" width="0.820513" height="1.06667" fill="#020400"/>
<rect x="11.4863" y="24.5352" width="0.820513" height="1.06667" fill="#020400"/>
<rect x="12.3086" y="24.5352" width="0.820513" height="1.06667" fill="#020400"/>
<rect x="13.1289" y="24.5352" width="0.820513" height="1.06667" fill="#020400"/>
<rect x="13.9492" y="24.5352" width="0.820513" height="1.06667" fill="#020400"/>
<rect x="15.5898" y="24.5352" width="0.820513" height="1.06667" fill="#020400"/>
<rect x="16.4102" y="24.5352" width="0.820513" height="1.06667" fill="#020400"/>
<rect x="1.64062" y="25.6016" width="0.820513" height="1.06667" fill="#020400"/>
<rect x="2.46094" y="25.6016" width="0.820513" height="1.06667" fill="#020400"/>
<rect x="5.74414" y="25.6016" width="0.820513" height="1.06667" fill="#020400"/>
<rect x="6.56445" y="25.6016" width="0.820513" height="1.06667" fill="#020400"/>
<rect x="7.38477" y="25.6016" width="0.820513" height="1.06667" fill="#020400"/>
<rect x="10.666" y="25.6016" width="0.820513" height="1.06667" fill="#000300"/>
<rect x="11.4863" y="25.6016" width="0.820513" height="1.06667" fill="#020400"/>
<rect x="12.3086" y="25.6016" width="0.820513" height="1.06667" fill="#020400"/>
<rect x="13.1289" y="25.6016" width="0.820513" height="1.06667" fill="#020400"/>
<rect x="15.5898" y="25.6016" width="0.820513" height="1.06667" fill="#010300"/>
<rect x="16.4102" y="25.6016" width="0.820513" height="1.06667" fill="#020400"/>
<rect x="17.2305" y="25.6016" width="0.820513" height="1.06667" fill="#020400"/>
<rect x="0.820312" y="26.668" width="0.820513" height="1.06667" fill="black"/>
<rect x="1.64062" y="26.668" width="0.820513" height="1.06667" fill="#020400"/>
<rect x="2.46094" y="26.668" width="0.820513" height="1.06667" fill="#020400"/>
<rect x="6.56445" y="26.668" width="0.820513" height="1.06667" fill="#020400"/>
<rect x="11.4863" y="26.668" width="0.820513" height="1.06667" fill="#000300"/>
<rect x="12.3086" y="26.668" width="0.820513" height="1.06667" fill="#020400"/>
<rect x="16.4102" y="26.668" width="0.820513" height="1.06667" fill="#020400"/>
<rect x="17.2305" y="26.668" width="0.820513" height="1.06667" fill="#020400"/>
<rect x="0.820312" y="27.7344" width="0.820513" height="1.06667" fill="#020400"/>
<rect x="1.64062" y="27.7344" width="0.820513" height="1.06667" fill="#020400"/>
<rect x="17.2305" y="27.7344" width="0.820513" height="1.06667" fill="#020400"/>
<rect x="18.0508" y="27.7344" width="0.820513" height="1.06667" fill="#020400"/>
<rect y="28.8008" width="0.820513" height="1.06667" fill="#020400"/>
<rect x="0.820312" y="28.8008" width="0.820513" height="1.06667" fill="#020400"/>
<rect x="1.64062" y="28.8008" width="0.820513" height="1.06667" fill="#020400"/>
<rect x="17.2305" y="28.8008" width="0.820513" height="1.06667" fill="#020400"/>
<rect x="18.0508" y="28.8008" width="0.820513" height="1.06667" fill="#020400"/>
<rect x="18.8711" y="28.8008" width="0.820513" height="1.06667" fill="#020400"/>
<rect y="29.8672" width="0.820513" height="1.06667" fill="#020400"/>
<rect x="0.820312" y="29.8672" width="0.820513" height="1.06667" fill="#020400"/>
<rect x="18.0508" y="29.8672" width="0.820513" height="1.06667" fill="#020400"/>
<rect x="18.8711" y="29.8672" width="0.820513" height="1.06667" fill="#020400"/>
<rect y="30.9336" width="0.820513" height="1.06667" fill="#020400"/>
<rect x="0.820312" y="30.9336" width="0.820513" height="1.06667" fill="#020400"/>
<rect x="18.0508" y="30.9336" width="0.820513" height="1.06667" fill="#020400"/>
<rect x="18.8711" y="30.9336" width="0.820513" height="1.06667" fill="#020400"/>
</svg>
