<svg width="32" height="32" viewBox="0 0 32 32" fill="none" xmlns="http://www.w3.org/2000/svg">
<path d="M29.7155 7.625H28.1855V10.665H29.7155V7.625Z" fill="#000001"/>
<path d="M28.186 6.09473H26.666V7.62473H28.186V6.09473Z" fill="#000001"/>
<path d="M26.6648 4.57471H25.1348V6.09471H26.6648V4.57471Z" fill="#000001"/>
<path d="M19.0454 22.8549H22.0954V21.3349H23.6154V4.5749H25.1354V3.0449H23.6154V1.5249H22.0954V16.7649H19.0454V18.2849H17.5254V21.3349H19.0454V22.8549Z" fill="#000001"/>
<path d="M14.4753 15.2349H12.9453V18.2849H14.4753V15.2349Z" fill="#000001"/>
<path d="M12.9458 13.7148H11.4258V15.2348H12.9458V13.7148Z" fill="#000001"/>
<path d="M11.4243 12.1948H9.9043V13.7148H11.4243V12.1948Z" fill="#000001"/>
<path d="M3.80516 30.475H6.85516V28.955H8.37516V12.195H9.90516V10.665H8.37516V9.14502H6.85516V24.385H3.80516V25.905H2.28516V28.955H3.80516V30.475Z" fill="#000001"/>
</svg>
