<svg width="32" height="32" viewBox="0 0 32 32" fill="none" xmlns="http://www.w3.org/2000/svg">
<g clip-path="url(#clip0_220_2535)">
<path d="M32.0005 1.52002H30.4805V16.76H32.0005V1.52002Z" fill="#000001"/>
<path d="M30.4792 16.7598H28.9492V19.8098H30.4792V16.7598Z" fill="#000001"/>
<path d="M30.4797 0H27.4297V1.52H30.4797V0Z" fill="#000001"/>
<path d="M28.9497 19.8101H27.4297V22.8501H28.9497V19.8101Z" fill="#000001"/>
<path d="M27.4304 22.8501H25.9004V24.3801H27.4304V22.8501Z" fill="#000001"/>
<path d="M27.4304 1.52002H25.9004V3.05002H27.4304V1.52002Z" fill="#000001"/>
<path d="M25.9009 24.3799H24.3809V25.8999H25.9009V24.3799Z" fill="#000001"/>
<path d="M25.9009 10.6602H24.3809V12.1902H25.9009V10.6602Z" fill="#000001"/>
<path d="M25.9009 3.0498H24.3809V4.5698H25.9009V3.0498Z" fill="#000001"/>
<path d="M24.3794 12.1899H22.8594V13.7099H24.3794V12.1899Z" fill="#000001"/>
<path d="M24.3801 25.8999H21.3301V27.4299H24.3801V25.8999Z" fill="#000001"/>
<path d="M22.8601 13.71H21.3301V15.24H22.8601V13.71Z" fill="#000001"/>
<path d="M21.3293 15.2402H18.2793V16.7602H21.3293V15.2402Z" fill="#000001"/>
<path d="M21.3293 27.4302H18.2793V28.9502H21.3293V27.4302Z" fill="#000001"/>
<path d="M18.2802 16.7598H15.2402V18.2798H18.2802V16.7598Z" fill="#000001"/>
<path d="M18.2798 28.9502H6.08984V30.4702H18.2798V28.9502Z" fill="#000001"/>
<path d="M16.7599 9.14014H12.1899V10.6601H13.7099V12.1901H12.1899V10.6601H10.6699V13.7101H12.1899V15.2401H16.7599V13.7101H15.2399V12.1901H16.7599V13.7101H18.2799V10.6601H16.7599V9.14014Z" fill="#000001"/>
<path d="M15.2395 18.2798H12.1895V19.8098H15.2395V18.2798Z" fill="#000001"/>
<path d="M12.1906 19.8101H9.14062V21.3301H12.1906V19.8101Z" fill="#000001"/>
<path d="M16.7606 7.61982V6.08982H24.3806V4.56982H15.2406V6.08982H9.14062V7.61982H16.7606Z" fill="#000001"/>
<path d="M9.13914 21.3301H7.61914V22.8501H9.13914V21.3301Z" fill="#000001"/>
<path d="M9.13984 7.62012H6.08984V9.14012H9.13984V7.62012Z" fill="#000001"/>
<path d="M7.61984 22.8501H6.08984V24.3801H7.61984V22.8501Z" fill="#000001"/>
<path d="M6.09031 27.4302H4.57031V28.9502H6.09031V27.4302Z" fill="#000001"/>
<path d="M6.09031 24.3799H4.57031V25.8999H6.09031V24.3799Z" fill="#000001"/>
<path d="M6.09031 9.14014H4.57031V10.6601H6.09031V9.14014Z" fill="#000001"/>
<path d="M4.57078 25.8999H3.05078V27.4299H4.57078V25.8999Z" fill="#000001"/>
<path d="M4.57078 10.6602H3.05078V12.1902H4.57078V10.6602Z" fill="#000001"/>
<path d="M3.04953 27.4302H1.51953V28.9502H3.04953V27.4302Z" fill="#000001"/>
<path d="M3.04953 24.3799H1.51953V25.8999H3.04953V24.3799Z" fill="#000001"/>
<path d="M3.04953 12.1899H1.51953V15.2399H3.04953V12.1899Z" fill="#000001"/>
<path d="M1.52 28.9502H0V32.0002H1.52V28.9502Z" fill="#000001"/>
<path d="M1.52 15.2402H0V24.3802H1.52V15.2402Z" fill="#000001"/>
</g>
<defs>
<clipPath id="clip0_220_2535">
<rect width="32" height="32" fill="white"/>
</clipPath>
</defs>
</svg>
