<svg width="32" height="32" viewBox="0 0 32 32" fill="none" xmlns="http://www.w3.org/2000/svg">
<g clip-path="url(#clip0_221_13153)">
<rect x="10.666" width="0.820513" height="1" fill="black"/>
<rect x="11.4863" width="0.820513" height="1" fill="black"/>
<rect x="12.3086" width="0.820513" height="1" fill="black"/>
<rect x="13.1289" width="0.820513" height="1" fill="black"/>
<rect x="13.9492" width="0.820513" height="1" fill="black"/>
<rect x="14.7695" width="0.820513" height="1" fill="black"/>
<rect x="15.5898" width="0.820513" height="1" fill="black"/>
<rect x="16.4102" width="0.820513" height="1" fill="black"/>
<rect x="17.2305" width="0.820513" height="1" fill="black"/>
<rect x="18.0508" width="0.820513" height="1" fill="black"/>
<rect x="18.8711" width="0.820513" height="1" fill="black"/>
<rect x="19.6914" width="0.820513" height="1" fill="black"/>
<rect x="20.5137" width="0.820513" height="1" fill="black"/>
<rect x="9.02539" y="1" width="0.820513" height="1" fill="black"/>
<rect x="9.8457" y="1" width="0.820513" height="1" fill="black"/>
<rect x="10.666" y="1" width="0.820513" height="1" fill="black"/>
<rect x="11.4863" y="1" width="0.820513" height="1" fill="black"/>
<rect x="12.3086" y="1" width="0.820513" height="1" fill="black"/>
<rect x="13.1289" y="1" width="0.820513" height="1" fill="black"/>
<rect x="13.9492" y="1" width="0.820513" height="1" fill="black"/>
<rect x="14.7695" y="1" width="0.820513" height="1" fill="black"/>
<rect x="15.5898" y="1" width="0.820513" height="1" fill="black"/>
<rect x="16.4102" y="1" width="0.820513" height="1" fill="black"/>
<rect x="17.2305" y="1" width="0.820513" height="1" fill="black"/>
<rect x="18.0508" y="1" width="0.820513" height="1" fill="black"/>
<rect x="18.8711" y="1" width="0.820513" height="1" fill="black"/>
<rect x="19.6914" y="1" width="0.820513" height="1" fill="black"/>
<rect x="20.5137" y="1" width="0.820513" height="1" fill="black"/>
<rect x="21.334" y="1" width="0.820513" height="1" fill="black"/>
<rect x="22.1543" y="1" width="0.820513" height="1" fill="black"/>
<rect x="8.20508" y="2" width="0.820513" height="1" fill="black"/>
<rect x="9.02539" y="2" width="0.820513" height="1" fill="black"/>
<rect x="9.8457" y="2" width="0.820513" height="1" fill="black"/>
<rect x="11.4863" y="2" width="0.820513" height="1" fill="black"/>
<rect x="12.3086" y="2" width="0.820513" height="1" fill="black"/>
<rect x="21.334" y="2" width="0.820513" height="1" fill="black"/>
<rect x="22.1543" y="2" width="0.820513" height="1" fill="black"/>
<rect x="22.9746" y="2" width="0.820513" height="1" fill="black"/>
<rect x="0.820312" y="3" width="0.820513" height="1" fill="black"/>
<rect x="1.64062" y="3" width="0.820513" height="1" fill="black"/>
<rect x="2.46094" y="3" width="0.820513" height="1" fill="black"/>
<rect x="3.28125" y="3" width="0.820513" height="1" fill="black"/>
<rect x="4.10352" y="3" width="0.820513" height="1" fill="black"/>
<rect x="4.92383" y="3" width="0.820513" height="1" fill="black"/>
<rect x="5.74414" y="3" width="0.820513" height="1" fill="black"/>
<rect x="6.56445" y="3" width="0.820513" height="1" fill="black"/>
<rect x="7.38477" y="3" width="0.820513" height="1" fill="black"/>
<rect x="8.20508" y="3" width="0.820513" height="1" fill="black"/>
<rect x="9.02539" y="3" width="0.820513" height="1" fill="black"/>
<rect x="11.4863" y="3" width="0.820513" height="1" fill="black"/>
<rect x="12.3086" y="3" width="0.820513" height="1" fill="black"/>
<rect x="15.5898" y="3" width="0.820513" height="1" fill="black"/>
<rect x="22.1543" y="3" width="0.820513" height="1" fill="black"/>
<rect x="22.9746" y="3" width="0.820513" height="1" fill="black"/>
<rect x="23.7949" y="3" width="0.820513" height="1" fill="black"/>
<rect x="24.6152" y="3" width="0.820513" height="1" fill="black"/>
<rect x="25.4355" y="3" width="0.820513" height="1" fill="black"/>
<rect x="26.2559" y="3" width="0.820513" height="1" fill="black"/>
<rect x="27.0762" y="3" width="0.820513" height="1" fill="black"/>
<rect x="27.8965" y="3" width="0.820513" height="1" fill="black"/>
<rect x="28.7188" y="3" width="0.820513" height="1" fill="black"/>
<rect x="29.5391" y="3" width="0.820513" height="1" fill="black"/>
<rect x="30.3594" y="3" width="0.820513" height="1" fill="black"/>
<rect y="4" width="0.820513" height="1" fill="black"/>
<rect x="0.820312" y="4" width="0.820513" height="1" fill="black"/>
<rect x="1.64062" y="4" width="0.820513" height="1" fill="black"/>
<rect x="2.46094" y="4" width="0.820513" height="1" fill="black"/>
<rect x="3.28125" y="4" width="0.820513" height="1" fill="black"/>
<rect x="4.10352" y="4" width="0.820513" height="1" fill="black"/>
<rect x="4.92383" y="4" width="0.820513" height="1" fill="black"/>
<rect x="5.74414" y="4" width="0.820513" height="1" fill="black"/>
<rect x="6.56445" y="4" width="0.820513" height="1" fill="black"/>
<rect x="7.38477" y="4" width="0.820513" height="1" fill="black"/>
<rect x="8.20508" y="4" width="0.820513" height="1" fill="black"/>
<rect x="9.02539" y="4" width="0.820513" height="1" fill="black"/>
<rect x="11.4863" y="4" width="0.820513" height="1" fill="black"/>
<rect x="12.3086" y="4" width="0.820513" height="1" fill="black"/>
<rect x="14.7695" y="4" width="0.820513" height="1" fill="black"/>
<rect x="15.5898" y="4" width="0.820513" height="1" fill="black"/>
<rect x="22.1543" y="4" width="0.820513" height="1" fill="black"/>
<rect x="22.9746" y="4" width="0.820513" height="1" fill="black"/>
<rect x="23.7949" y="4" width="0.820513" height="1" fill="black"/>
<rect x="24.6152" y="4" width="0.820513" height="1" fill="black"/>
<rect x="25.4355" y="4" width="0.820513" height="1" fill="black"/>
<rect x="26.2559" y="4" width="0.820513" height="1" fill="black"/>
<rect x="27.0762" y="4" width="0.820513" height="1" fill="black"/>
<rect x="27.8965" y="4" width="0.820513" height="1" fill="black"/>
<rect x="28.7188" y="4" width="0.820513" height="1" fill="black"/>
<rect x="29.5391" y="4" width="0.820513" height="1" fill="black"/>
<rect x="30.3594" y="4" width="0.820513" height="1" fill="black"/>
<rect x="8.20508" y="5" width="0.820513" height="1" fill="black"/>
<rect x="9.02539" y="5" width="0.820513" height="1" fill="black"/>
<rect x="11.4863" y="5" width="0.820513" height="1" fill="black"/>
<rect x="12.3086" y="5" width="0.820513" height="1" fill="black"/>
<rect x="14.7695" y="5" width="0.820513" height="1" fill="black"/>
<rect x="15.5898" y="5" width="0.820513" height="1" fill="black"/>
<rect x="22.1543" y="5" width="0.820513" height="1" fill="black"/>
<rect x="22.9746" y="5" width="0.820513" height="1" fill="black"/>
<rect x="8.20508" y="6" width="0.820513" height="1" fill="black"/>
<rect x="9.02539" y="6" width="0.820513" height="1" fill="black"/>
<rect x="11.4863" y="6" width="0.820513" height="1" fill="black"/>
<rect x="12.3086" y="6" width="0.820513" height="1" fill="black"/>
<rect x="14.7695" y="6" width="0.820513" height="1" fill="black"/>
<rect x="15.5898" y="6" width="0.820513" height="1" fill="black"/>
<rect x="22.1543" y="6" width="0.820513" height="1" fill="black"/>
<rect x="22.9746" y="6" width="0.820513" height="1" fill="black"/>
<rect x="8.20508" y="7" width="0.820513" height="1" fill="black"/>
<rect x="9.02539" y="7" width="0.820513" height="1" fill="black"/>
<rect x="11.4863" y="7" width="0.820513" height="1" fill="black"/>
<rect x="12.3086" y="7" width="0.820513" height="1" fill="black"/>
<rect x="14.7695" y="7" width="0.820513" height="1" fill="black"/>
<rect x="15.5898" y="7" width="0.820513" height="1" fill="black"/>
<rect x="22.1543" y="7" width="0.820513" height="1" fill="black"/>
<rect x="22.9746" y="7" width="0.820513" height="1" fill="black"/>
<rect x="8.20508" y="8" width="0.820513" height="1" fill="black"/>
<rect x="9.02539" y="8" width="0.820513" height="1" fill="black"/>
<rect x="11.4863" y="8" width="0.820513" height="1" fill="black"/>
<rect x="12.3086" y="8" width="0.820513" height="1" fill="black"/>
<rect x="14.7695" y="8" width="0.820513" height="1" fill="black"/>
<rect x="15.5898" y="8" width="0.820513" height="1" fill="black"/>
<rect x="22.1543" y="8" width="0.820513" height="1" fill="black"/>
<rect x="22.9746" y="8" width="0.820513" height="1" fill="black"/>
<rect x="8.20508" y="9" width="0.820513" height="1" fill="black"/>
<rect x="9.02539" y="9" width="0.820513" height="1" fill="black"/>
<rect x="11.4863" y="9" width="0.820513" height="1" fill="black"/>
<rect x="12.3086" y="9" width="0.820513" height="1" fill="black"/>
<rect x="14.7695" y="9" width="0.820513" height="1" fill="black"/>
<rect x="15.5898" y="9" width="0.820513" height="1" fill="black"/>
<rect x="22.1543" y="9" width="0.820513" height="1" fill="black"/>
<rect x="22.9746" y="9" width="0.820513" height="1" fill="black"/>
<rect x="8.20508" y="10" width="0.820513" height="1" fill="black"/>
<rect x="9.02539" y="10" width="0.820513" height="1" fill="black"/>
<rect x="11.4863" y="10" width="0.820513" height="1" fill="black"/>
<rect x="12.3086" y="10" width="0.820513" height="1" fill="black"/>
<rect x="14.7695" y="10" width="0.820513" height="1" fill="black"/>
<rect x="15.5898" y="10" width="0.820513" height="1" fill="black"/>
<rect x="22.1543" y="10" width="0.820513" height="1" fill="black"/>
<rect x="22.9746" y="10" width="0.820513" height="1" fill="black"/>
<rect x="8.20508" y="11" width="0.820513" height="1" fill="black"/>
<rect x="9.02539" y="11" width="0.820513" height="1" fill="black"/>
<rect x="14.7695" y="11" width="0.820513" height="1" fill="black"/>
<rect x="15.5898" y="11" width="0.820513" height="1" fill="black"/>
<rect x="18.8711" y="11" width="0.820513" height="1" fill="black"/>
<rect x="19.6914" y="11" width="0.820513" height="1" fill="black"/>
<rect x="22.1543" y="11" width="0.820513" height="1" fill="black"/>
<rect x="22.9746" y="11" width="0.820513" height="1" fill="black"/>
<rect x="8.20508" y="12" width="0.820513" height="1" fill="black"/>
<rect x="9.02539" y="12" width="0.820513" height="1" fill="black"/>
<rect x="14.7695" y="12" width="0.820513" height="1" fill="black"/>
<rect x="15.5898" y="12" width="0.820513" height="1" fill="black"/>
<rect x="18.8711" y="12" width="0.820513" height="1" fill="black"/>
<rect x="19.6914" y="12" width="0.820513" height="1" fill="black"/>
<rect x="22.1543" y="12" width="0.820513" height="1" fill="black"/>
<rect x="22.9746" y="12" width="0.820513" height="1" fill="black"/>
<rect x="8.20508" y="13" width="0.820513" height="1" fill="black"/>
<rect x="9.02539" y="13" width="0.820513" height="1" fill="black"/>
<rect x="11.4863" y="13" width="0.820513" height="1" fill="black"/>
<rect x="12.3086" y="13" width="0.820513" height="1" fill="black"/>
<rect x="14.7695" y="13" width="0.820513" height="1" fill="black"/>
<rect x="15.5898" y="13" width="0.820513" height="1" fill="black"/>
<rect x="18.8711" y="13" width="0.820513" height="1" fill="black"/>
<rect x="19.6914" y="13" width="0.820513" height="1" fill="black"/>
<rect x="22.1543" y="13" width="0.820513" height="1" fill="black"/>
<rect x="22.9746" y="13" width="0.820513" height="1" fill="black"/>
<rect x="8.20508" y="14" width="0.820513" height="1" fill="black"/>
<rect x="9.02539" y="14" width="0.820513" height="1" fill="black"/>
<rect x="11.4863" y="14" width="0.820513" height="1" fill="black"/>
<rect x="12.3086" y="14" width="0.820513" height="1" fill="black"/>
<rect x="14.7695" y="14" width="0.820513" height="1" fill="black"/>
<rect x="15.5898" y="14" width="0.820513" height="1" fill="black"/>
<rect x="18.8711" y="14" width="0.820513" height="1" fill="black"/>
<rect x="19.6914" y="14" width="0.820513" height="1" fill="black"/>
<rect x="22.1543" y="14" width="0.820513" height="1" fill="black"/>
<rect x="22.9746" y="14" width="0.820513" height="1" fill="black"/>
<rect x="8.20508" y="15" width="0.820513" height="1" fill="black"/>
<rect x="9.02539" y="15" width="0.820513" height="1" fill="black"/>
<rect x="11.4863" y="15" width="0.820513" height="1" fill="black"/>
<rect x="12.3086" y="15" width="0.820513" height="1" fill="black"/>
<rect x="14.7695" y="15" width="0.820513" height="1" fill="black"/>
<rect x="15.5898" y="15" width="0.820513" height="1" fill="black"/>
<rect x="18.8711" y="15" width="0.820513" height="1" fill="black"/>
<rect x="19.6914" y="15" width="0.820513" height="1" fill="black"/>
<rect x="22.1543" y="15" width="0.820513" height="1" fill="black"/>
<rect x="22.9746" y="15" width="0.820513" height="1" fill="black"/>
<rect x="8.20508" y="16" width="0.820513" height="1" fill="black"/>
<rect x="9.02539" y="16" width="0.820513" height="1" fill="black"/>
<rect x="11.4863" y="16" width="0.820513" height="1" fill="black"/>
<rect x="12.3086" y="16" width="0.820513" height="1" fill="black"/>
<rect x="14.7695" y="16" width="0.820513" height="1" fill="black"/>
<rect x="15.5898" y="16" width="0.820513" height="1" fill="black"/>
<rect x="18.8711" y="16" width="0.820513" height="1" fill="black"/>
<rect x="19.6914" y="16" width="0.820513" height="1" fill="black"/>
<rect x="22.1543" y="16" width="0.820513" height="1" fill="black"/>
<rect x="22.9746" y="16" width="0.820513" height="1" fill="black"/>
<rect x="8.20508" y="17" width="0.820513" height="1" fill="black"/>
<rect x="9.02539" y="17" width="0.820513" height="1" fill="black"/>
<rect x="11.4863" y="17" width="0.820513" height="1" fill="black"/>
<rect x="12.3086" y="17" width="0.820513" height="1" fill="black"/>
<rect x="14.7695" y="17" width="0.820513" height="1" fill="black"/>
<rect x="15.5898" y="17" width="0.820513" height="1" fill="black"/>
<rect x="18.8711" y="17" width="0.820513" height="1" fill="black"/>
<rect x="19.6914" y="17" width="0.820513" height="1" fill="black"/>
<rect x="22.1543" y="17" width="0.820513" height="1" fill="black"/>
<rect x="22.9746" y="17" width="0.820513" height="1" fill="black"/>
<rect x="8.20508" y="18" width="0.820513" height="1" fill="black"/>
<rect x="9.02539" y="18" width="0.820513" height="1" fill="black"/>
<rect x="11.4863" y="18" width="0.820513" height="1" fill="black"/>
<rect x="12.3086" y="18" width="0.820513" height="1" fill="black"/>
<rect x="14.7695" y="18" width="0.820513" height="1" fill="black"/>
<rect x="15.5898" y="18" width="0.820513" height="1" fill="black"/>
<rect x="18.8711" y="18" width="0.820513" height="1" fill="black"/>
<rect x="19.6914" y="18" width="0.820513" height="1" fill="black"/>
<rect x="22.1543" y="18" width="0.820513" height="1" fill="black"/>
<rect x="22.9746" y="18" width="0.820513" height="1" fill="black"/>
<rect x="8.20508" y="19" width="0.820513" height="1" fill="black"/>
<rect x="9.02539" y="19" width="0.820513" height="1" fill="black"/>
<rect x="11.4863" y="19" width="0.820513" height="1" fill="black"/>
<rect x="12.3086" y="19" width="0.820513" height="1" fill="black"/>
<rect x="14.7695" y="19" width="0.820513" height="1" fill="black"/>
<rect x="15.5898" y="19" width="0.820513" height="1" fill="black"/>
<rect x="18.8711" y="19" width="0.820513" height="1" fill="black"/>
<rect x="19.6914" y="19" width="0.820513" height="1" fill="black"/>
<rect x="22.1543" y="19" width="0.820513" height="1" fill="black"/>
<rect x="22.9746" y="19" width="0.820513" height="1" fill="black"/>
<rect x="8.20508" y="20" width="0.820513" height="1" fill="black"/>
<rect x="9.02539" y="20" width="0.820513" height="1" fill="black"/>
<rect x="11.4863" y="20" width="0.820513" height="1" fill="black"/>
<rect x="12.3086" y="20" width="0.820513" height="1" fill="black"/>
<rect x="14.7695" y="20" width="0.820513" height="1" fill="black"/>
<rect x="15.5898" y="20" width="0.820513" height="1" fill="black"/>
<rect x="18.8711" y="20" width="0.820513" height="1" fill="black"/>
<rect x="19.6914" y="20" width="0.820513" height="1" fill="black"/>
<rect x="22.1543" y="20" width="0.820513" height="1" fill="black"/>
<rect x="22.9746" y="20" width="0.820513" height="1" fill="black"/>
<rect x="8.20508" y="21" width="0.820513" height="1" fill="black"/>
<rect x="9.02539" y="21" width="0.820513" height="1" fill="black"/>
<rect x="11.4863" y="21" width="0.820513" height="1" fill="black"/>
<rect x="12.3086" y="21" width="0.820513" height="1" fill="black"/>
<rect x="14.7695" y="21" width="0.820513" height="1" fill="black"/>
<rect x="15.5898" y="21" width="0.820513" height="1" fill="black"/>
<rect x="18.8711" y="21" width="0.820513" height="1" fill="black"/>
<rect x="19.6914" y="21" width="0.820513" height="1" fill="black"/>
<rect x="22.1543" y="21" width="0.820513" height="1" fill="black"/>
<rect x="22.9746" y="21" width="0.820513" height="1" fill="black"/>
<rect x="8.20508" y="22" width="0.820513" height="1" fill="black"/>
<rect x="9.02539" y="22" width="0.820513" height="1" fill="black"/>
<rect x="11.4863" y="22" width="0.820513" height="1" fill="black"/>
<rect x="12.3086" y="22" width="0.820513" height="1" fill="black"/>
<rect x="14.7695" y="22" width="0.820513" height="1" fill="black"/>
<rect x="15.5898" y="22" width="0.820513" height="1" fill="black"/>
<rect x="18.8711" y="22" width="0.820513" height="1" fill="black"/>
<rect x="19.6914" y="22" width="0.820513" height="1" fill="black"/>
<rect x="22.1543" y="22" width="0.820513" height="1" fill="black"/>
<rect x="22.9746" y="22" width="0.820513" height="1" fill="black"/>
<rect x="8.20508" y="23" width="0.820513" height="1" fill="black"/>
<rect x="9.02539" y="23" width="0.820513" height="1" fill="black"/>
<rect x="11.4863" y="23" width="0.820513" height="1" fill="black"/>
<rect x="12.3086" y="23" width="0.820513" height="1" fill="black"/>
<rect x="18.8711" y="23" width="0.820513" height="1" fill="black"/>
<rect x="19.6914" y="23" width="0.820513" height="1" fill="black"/>
<rect x="22.1543" y="23" width="0.820513" height="1" fill="black"/>
<rect x="22.9746" y="23" width="0.820513" height="1" fill="black"/>
<rect x="8.20508" y="24" width="0.820513" height="1" fill="black"/>
<rect x="9.02539" y="24" width="0.820513" height="1" fill="black"/>
<rect x="11.4863" y="24" width="0.820513" height="1" fill="black"/>
<rect x="12.3086" y="24" width="0.820513" height="1" fill="black"/>
<rect x="18.8711" y="24" width="0.820513" height="1" fill="black"/>
<rect x="19.6914" y="24" width="0.820513" height="1" fill="black"/>
<rect x="22.1543" y="24" width="0.820513" height="1" fill="black"/>
<rect x="22.9746" y="24" width="0.820513" height="1" fill="black"/>
<rect x="3.28125" y="25" width="0.820513" height="1" fill="black"/>
<rect x="4.10352" y="25" width="0.820513" height="1" fill="black"/>
<rect x="4.92383" y="25" width="0.820513" height="1" fill="black"/>
<rect x="5.74414" y="25" width="0.820513" height="1" fill="black"/>
<rect x="6.56445" y="25" width="0.820513" height="1" fill="black"/>
<rect x="7.38477" y="25" width="0.820513" height="1" fill="black"/>
<rect x="8.20508" y="25" width="0.820513" height="1" fill="black"/>
<rect x="9.02539" y="25" width="0.820513" height="1" fill="black"/>
<rect x="11.4863" y="25" width="0.820513" height="1" fill="black"/>
<rect x="12.3086" y="25" width="0.820513" height="1" fill="black"/>
<rect x="13.1289" y="25" width="0.820513" height="1" fill="black"/>
<rect x="13.9492" y="25" width="0.820513" height="1" fill="black"/>
<rect x="14.7695" y="25" width="0.820513" height="1" fill="black"/>
<rect x="15.5898" y="25" width="0.820513" height="1" fill="black"/>
<rect x="16.4102" y="25" width="0.820513" height="1" fill="black"/>
<rect x="17.2305" y="25" width="0.820513" height="1" fill="black"/>
<rect x="18.0508" y="25" width="0.820513" height="1" fill="black"/>
<rect x="22.1543" y="25" width="0.820513" height="1" fill="black"/>
<rect x="22.9746" y="25" width="0.820513" height="1" fill="black"/>
<rect x="23.7949" y="25" width="0.820513" height="1" fill="black"/>
<rect x="24.6152" y="25" width="0.820513" height="1" fill="black"/>
<rect x="25.4355" y="25" width="0.820513" height="1" fill="black"/>
<rect x="26.2559" y="25" width="0.820513" height="1" fill="black"/>
<rect x="27.0762" y="25" width="0.820513" height="1" fill="black"/>
<rect x="27.8965" y="25" width="0.820513" height="1" fill="black"/>
<rect y="26" width="0.820513" height="1" fill="black"/>
<rect x="0.820312" y="26" width="0.820513" height="1" fill="black"/>
<rect x="1.64062" y="26" width="0.820513" height="1" fill="black"/>
<rect x="2.46094" y="26" width="0.820513" height="1" fill="black"/>
<rect x="3.28125" y="26" width="0.820513" height="1" fill="black"/>
<rect x="4.10352" y="26" width="0.820513" height="1" fill="black"/>
<rect x="4.92383" y="26" width="0.820513" height="1" fill="black"/>
<rect x="5.74414" y="26" width="0.820513" height="1" fill="black"/>
<rect x="6.56445" y="26" width="0.820513" height="1" fill="black"/>
<rect x="7.38477" y="26" width="0.820513" height="1" fill="black"/>
<rect x="8.20508" y="26" width="0.820513" height="1" fill="black"/>
<rect x="9.02539" y="26" width="0.820513" height="1" fill="black"/>
<rect x="9.8457" y="26" width="0.820513" height="1" fill="black"/>
<rect x="10.666" y="26" width="0.820513" height="1" fill="black"/>
<rect x="11.4863" y="26" width="0.820513" height="1" fill="black"/>
<rect x="12.3086" y="26" width="0.820513" height="1" fill="black"/>
<rect x="13.1289" y="26" width="0.820513" height="1" fill="black"/>
<rect x="13.9492" y="26" width="0.820513" height="1" fill="black"/>
<rect x="14.7695" y="26" width="0.820513" height="1" fill="black"/>
<rect x="15.5898" y="26" width="0.820513" height="1" fill="black"/>
<rect x="16.4102" y="26" width="0.820513" height="1" fill="black"/>
<rect x="17.2305" y="26" width="0.820513" height="1" fill="black"/>
<rect x="18.0508" y="26" width="0.820513" height="1" fill="black"/>
<rect x="18.8711" y="26" width="0.820513" height="1" fill="black"/>
<rect x="19.6914" y="26" width="0.820513" height="1" fill="black"/>
<rect x="20.5137" y="26" width="0.820513" height="1" fill="black"/>
<rect x="21.334" y="26" width="0.820513" height="1" fill="black"/>
<rect x="22.1543" y="26" width="0.820513" height="1" fill="black"/>
<rect x="22.9746" y="26" width="0.820513" height="1" fill="black"/>
<rect x="23.7949" y="26" width="0.820513" height="1" fill="black"/>
<rect x="24.6152" y="26" width="0.820513" height="1" fill="black"/>
<rect x="25.4355" y="26" width="0.820513" height="1" fill="black"/>
<rect x="26.2559" y="26" width="0.820513" height="1" fill="black"/>
<rect x="27.0762" y="26" width="0.820513" height="1" fill="black"/>
<rect x="27.8965" y="26" width="0.820513" height="1" fill="black"/>
<rect x="28.7188" y="26" width="0.820513" height="1" fill="black"/>
<rect x="29.5391" y="26" width="0.820513" height="1" fill="black"/>
<rect x="30.3594" y="26" width="0.820513" height="1" fill="black"/>
<rect y="27" width="0.820513" height="1" fill="black"/>
<rect x="0.820312" y="27" width="0.820513" height="1" fill="black"/>
<rect x="1.64062" y="27" width="0.820513" height="1" fill="black"/>
<rect x="2.46094" y="27" width="0.820513" height="1" fill="black"/>
<rect x="9.02539" y="27" width="0.820513" height="1" fill="black"/>
<rect x="9.8457" y="27" width="0.820513" height="1" fill="black"/>
<rect x="10.666" y="27" width="0.820513" height="1" fill="black"/>
<rect x="11.4863" y="27" width="0.820513" height="1" fill="black"/>
<rect x="12.3086" y="27" width="0.820513" height="1" fill="black"/>
<rect x="18.8711" y="27" width="0.820513" height="1" fill="black"/>
<rect x="19.6914" y="27" width="0.820513" height="1" fill="black"/>
<rect x="20.5137" y="27" width="0.820513" height="1" fill="black"/>
<rect x="21.334" y="27" width="0.820513" height="1" fill="black"/>
<rect x="22.1543" y="27" width="0.820513" height="1" fill="black"/>
<rect x="28.7188" y="27" width="0.820513" height="1" fill="black"/>
<rect x="29.5391" y="27" width="0.820513" height="1" fill="black"/>
<rect x="30.3594" y="27" width="0.820513" height="1" fill="black"/>
<rect x="31.1797" y="27" width="0.820513" height="1" fill="black"/>
<rect x="3.28125" y="29" width="0.820513" height="1" fill="black"/>
<rect x="4.10352" y="29" width="0.820513" height="1" fill="black"/>
<rect x="4.92383" y="29" width="0.820513" height="1" fill="black"/>
<rect x="5.74414" y="29" width="0.820513" height="1" fill="black"/>
<rect x="6.56445" y="29" width="0.820513" height="1" fill="black"/>
<rect x="7.38477" y="29" width="0.820513" height="1" fill="black"/>
<rect x="13.1289" y="29" width="0.820513" height="1" fill="black"/>
<rect x="13.9492" y="29" width="0.820513" height="1" fill="black"/>
<rect x="14.7695" y="29" width="0.820513" height="1" fill="black"/>
<rect x="15.5898" y="29" width="0.820513" height="1" fill="black"/>
<rect x="16.4102" y="29" width="0.820513" height="1" fill="black"/>
<rect x="17.2305" y="29" width="0.820513" height="1" fill="black"/>
<rect x="22.9746" y="29" width="0.820513" height="1" fill="black"/>
<rect x="23.7949" y="29" width="0.820513" height="1" fill="black"/>
<rect x="24.6152" y="29" width="0.820513" height="1" fill="black"/>
<rect x="25.4355" y="29" width="0.820513" height="1" fill="black"/>
<rect x="26.2559" y="29" width="0.820513" height="1" fill="black"/>
<rect x="27.0762" y="29" width="0.820513" height="1" fill="black"/>
<rect x="27.8965" y="29" width="0.820513" height="1" fill="black"/>
<rect y="30" width="0.820513" height="1" fill="black"/>
<rect x="0.820312" y="30" width="0.820513" height="1" fill="black"/>
<rect x="1.64062" y="30" width="0.820513" height="1" fill="black"/>
<rect x="2.46094" y="30" width="0.820513" height="1" fill="black"/>
<rect x="3.28125" y="30" width="0.820513" height="1" fill="black"/>
<rect x="4.10352" y="30" width="0.820513" height="1" fill="black"/>
<rect x="4.92383" y="30" width="0.820513" height="1" fill="black"/>
<rect x="5.74414" y="30" width="0.820513" height="1" fill="black"/>
<rect x="6.56445" y="30" width="0.820513" height="1" fill="black"/>
<rect x="7.38477" y="30" width="0.820513" height="1" fill="black"/>
<rect x="8.20508" y="30" width="0.820513" height="1" fill="black"/>
<rect x="9.02539" y="30" width="0.820513" height="1" fill="black"/>
<rect x="9.8457" y="30" width="0.820513" height="1" fill="black"/>
<rect x="10.666" y="30" width="0.820513" height="1" fill="black"/>
<rect x="11.4863" y="30" width="0.820513" height="1" fill="black"/>
<rect x="12.3086" y="30" width="0.820513" height="1" fill="black"/>
<rect x="13.1289" y="30" width="0.820513" height="1" fill="black"/>
<rect x="13.9492" y="30" width="0.820513" height="1" fill="black"/>
<rect x="14.7695" y="30" width="0.820513" height="1" fill="black"/>
<rect x="15.5898" y="30" width="0.820513" height="1" fill="black"/>
<rect x="16.4102" y="30" width="0.820513" height="1" fill="black"/>
<rect x="17.2305" y="30" width="0.820513" height="1" fill="black"/>
<rect x="18.0508" y="30" width="0.820513" height="1" fill="black"/>
<rect x="18.8711" y="30" width="0.820513" height="1" fill="black"/>
<rect x="19.6914" y="30" width="0.820513" height="1" fill="black"/>
<rect x="20.5137" y="30" width="0.820513" height="1" fill="black"/>
<rect x="21.334" y="30" width="0.820513" height="1" fill="black"/>
<rect x="22.1543" y="30" width="0.820513" height="1" fill="black"/>
<rect x="22.9746" y="30" width="0.820513" height="1" fill="black"/>
<rect x="23.7949" y="30" width="0.820513" height="1" fill="black"/>
<rect x="24.6152" y="30" width="0.820513" height="1" fill="black"/>
<rect x="25.4355" y="30" width="0.820513" height="1" fill="black"/>
<rect x="26.2559" y="30" width="0.820513" height="1" fill="black"/>
<rect x="27.0762" y="30" width="0.820513" height="1" fill="black"/>
<rect x="27.8965" y="30" width="0.820513" height="1" fill="black"/>
<rect x="28.7188" y="30" width="0.820513" height="1" fill="black"/>
<rect x="29.5391" y="30" width="0.820513" height="1" fill="black"/>
<rect x="30.3594" y="30" width="0.820513" height="1" fill="black"/>
<rect y="31" width="0.820513" height="1" fill="black"/>
<rect x="0.820312" y="31" width="0.820513" height="1" fill="black"/>
<rect x="1.64062" y="31" width="0.820513" height="1" fill="black"/>
<rect x="2.46094" y="31" width="0.820513" height="1" fill="black"/>
<rect x="3.28125" y="31" width="0.820513" height="1" fill="black"/>
<rect x="8.20508" y="31" width="0.820513" height="1" fill="black"/>
<rect x="9.02539" y="31" width="0.820513" height="1" fill="black"/>
<rect x="9.8457" y="31" width="0.820513" height="1" fill="black"/>
<rect x="10.666" y="31" width="0.820513" height="1" fill="black"/>
<rect x="11.4863" y="31" width="0.820513" height="1" fill="black"/>
<rect x="12.3086" y="31" width="0.820513" height="1" fill="black"/>
<rect x="13.1289" y="31" width="0.820513" height="1" fill="black"/>
<rect x="18.0508" y="31" width="0.820513" height="1" fill="black"/>
<rect x="18.8711" y="31" width="0.820513" height="1" fill="black"/>
<rect x="19.6914" y="31" width="0.820513" height="1" fill="black"/>
<rect x="20.5137" y="31" width="0.820513" height="1" fill="black"/>
<rect x="21.334" y="31" width="0.820513" height="1" fill="black"/>
<rect x="22.1543" y="31" width="0.820513" height="1" fill="black"/>
<rect x="22.9746" y="31" width="0.820513" height="1" fill="black"/>
<rect x="27.8965" y="31" width="0.820513" height="1" fill="black"/>
<rect x="28.7188" y="31" width="0.820513" height="1" fill="black"/>
<rect x="29.5391" y="31" width="0.820513" height="1" fill="black"/>
<rect x="30.3594" y="31" width="0.820513" height="1" fill="black"/>
</g>
<defs>
<clipPath id="clip0_221_13153">
<rect width="32" height="32" fill="white"/>
</clipPath>
</defs>
</svg>
